<svg width="156" height="328" viewBox="0 0 156 328" fill="none" xmlns="http://www.w3.org/2000/svg">
<g clip-path="url(#clip0_97_544)">
<path d="M14.9657 268.678C15.0576 269.372 15.2168 270.055 15.4411 270.718C16.8044 274.888 19.7404 278.349 23.6147 280.355C24.7631 280.962 25.9491 281.493 27.1654 281.946C32.2841 283.875 37.7496 284.69 43.203 284.339C48.6565 283.987 53.9745 282.476 58.8078 279.906C61.0059 278.683 62.9828 277.093 64.6548 275.205C67.9829 265.874 66.9106 255.512 66.4149 245.783C65.9091 235.891 65.0493 225.989 64.5941 216.076C64.1186 205.878 61.1749 164.209 60.6792 154.031C58.4309 154.593 56.1506 155.015 53.851 155.296C54.0129 160.742 56.6127 197.73 56.734 203.227C56.9364 211.61 57.432 219.962 57.6546 228.345C57.8771 236.728 58.5347 245.375 55.9754 253.34C53.5273 260.907 48.176 265.578 41.9952 266.536C39.8368 266.865 37.634 266.729 35.5312 266.139C33.1944 265.486 30.1395 264.262 29.0672 261.509C29.0146 261.419 28.9738 261.323 28.9458 261.223C28.2276 258.98 29.1279 256.379 30.3418 254.37C32.5976 250.627 35.3997 249.057 38.7177 247.007C41.0747 245.539 42.5516 240.96 38.4648 241.153C35.0456 241.317 31.2219 241.419 27.9645 242.989C22.3199 245.702 17.8487 252.881 15.8761 259.439C14.8929 262.411 14.5818 265.568 14.9657 268.678Z" fill="#5224AA"/>
<path d="M148.101 268.678C148.004 269.371 147.845 270.054 147.625 270.718C146.261 274.89 143.321 278.353 139.441 280.355C138.295 280.965 137.109 281.497 135.891 281.946C130.774 283.874 125.31 284.69 119.858 284.338C114.406 283.987 109.09 282.476 104.259 279.906C102.06 278.683 100.084 277.093 98.4115 275.205C95.0834 265.874 96.1557 255.512 96.6514 245.783C97.1572 235.891 98.0069 225.989 98.4722 216.076C98.9477 205.878 101.891 164.209 102.387 154.031C104.635 154.593 106.916 155.015 109.215 155.296C109.053 160.742 106.454 197.73 106.332 203.227C106.13 211.61 105.634 219.962 105.412 228.345C105.189 236.728 104.532 245.375 107.091 253.34C109.539 260.907 114.89 265.578 121.071 266.536C123.229 266.865 125.432 266.729 127.535 266.139C129.872 265.486 132.927 264.262 133.999 261.509C134.052 261.419 134.092 261.323 134.121 261.223C134.839 258.98 133.938 256.379 132.725 254.37C130.469 250.627 127.667 249.057 124.349 247.007C121.992 245.539 120.515 240.96 124.602 241.153C128.011 241.317 131.844 241.419 135.102 242.989C140.746 245.702 145.218 252.881 147.19 259.439C148.173 262.411 148.485 265.568 148.101 268.678Z" fill="#5224AA"/>
<path d="M138.834 48.8487C114.212 43.0766 78.9181 51.1432 66.8802 71.5597C37.1497 74.4458 14.561 96.2186 14.561 117.512C14.561 140.845 41.7221 161.588 75.5799 161.588C75.9643 161.588 76.3386 161.588 76.723 161.588C98.0877 161.588 104.916 168.655 124.267 170.552C148.283 172.898 169.941 171.98 182.666 135.736C195.878 98.1359 172.207 56.6706 138.834 48.8487Z" fill="#8A48E6"/>
<path d="M78.0785 296.631C76.7522 299.87 74.8224 302.823 72.3934 305.33C72.105 305.692 71.7905 306.033 71.4526 306.35C70.3296 307.424 69.1181 308.399 67.8311 309.266C67.2545 309.664 66.6476 310.031 66.0406 310.398C64.9347 311.014 63.7967 311.569 62.6316 312.061C62.2674 312.214 61.9336 312.366 61.5694 312.489C60.6591 312.854 59.7265 313.161 58.7775 313.407C54.4011 314.64 49.8437 315.089 45.3133 314.732C45.1615 314.732 45.0401 314.732 44.8783 314.732C42.0992 314.526 39.3436 314.072 36.644 313.376C28.9863 311.479 21.9355 307.533 17.8892 300.323C7.22706 281.385 25.5165 246.64 48.9853 253.626C49.2324 253.693 49.4756 253.775 49.7136 253.87H49.8047C50.4057 254.082 50.9375 254.456 51.3423 254.951C51.3423 255.002 51.4435 255.043 51.4839 255.094C51.5446 255.196 51.6559 255.257 51.7065 255.37C52.4652 257.032 51.0287 258.806 49.6024 259.938C45.293 263.375 39.881 265.547 36.3203 269.81C32.0008 274.909 31.2623 282.925 34.8636 288.564C41.2163 298.426 54.7109 296.101 59.6373 286.351C64.412 276.887 62.8845 265.119 63.279 254.88C63.5825 246.915 63.279 238.92 63.0059 230.986C62.49 214.955 61.4885 198.954 60.2443 182.963C59.5294 173.404 58.6965 163.845 57.7456 154.286L81.5381 146.719V262.518C81.5381 273.706 82.5093 285.964 78.0785 296.631Z" fill="#8A48E6"/>
<path d="M81.5282 146.719V262.518C81.5282 273.736 80.5166 285.974 84.9777 296.641C90.5111 309.97 103.995 315.66 117.753 314.671C128.415 313.906 139.593 310.113 145.167 300.251C155.849 281.313 137.56 246.569 114.061 253.544C113.511 253.646 112.988 253.862 112.525 254.178C112.061 254.494 111.668 254.903 111.37 255.38C110.611 257.022 112.038 258.827 113.464 259.948C117.804 263.395 123.195 265.568 126.766 269.81C131.086 274.909 131.824 282.925 128.213 288.564C121.87 298.426 108.376 296.121 103.439 286.372C98.6543 276.908 100.202 265.119 99.8075 254.88C99.504 246.936 99.8075 238.94 100.06 230.996C100.586 214.975 101.588 198.964 102.822 182.984C103.561 173.408 104.37 163.842 105.331 154.286L81.5282 146.719Z" fill="#8A48E6"/>
<path d="M104.218 166.228C110.741 168.365 117.467 169.81 124.288 170.542C148.293 172.888 169.951 171.97 182.686 135.726C187.903 120.614 187.602 104.121 181.837 89.2126C186.348 103.419 168.504 123.692 154.999 126.364C152.48 126.822 150.136 127.977 148.23 129.701C146.324 131.424 144.93 133.648 144.206 136.124C136.73 163.047 104.228 166.228 104.218 166.228Z" fill="#5224AA"/>
<path d="M88.9933 87.4892C88.9933 87.4892 88.184 81.2072 86.2114 77.7908C92.635 77.0667 117.115 85.062 122.214 90.518C108.173 86.9793 88.9933 87.4892 88.9933 87.4892Z" fill="#120C38"/>
<path d="M56.8859 87.7746C56.8859 87.7746 57.594 81.4824 59.5059 78.0253C53.1026 77.4032 28.7234 85.8268 23.7666 91.3847C37.7063 87.591 56.8859 87.7746 56.8859 87.7746Z" fill="#120C38"/>
<path d="M46.7698 125.987C52.2728 125.987 56.7339 121.489 56.7339 115.942C56.7339 110.394 52.2728 105.896 46.7698 105.896C41.2668 105.896 36.8057 110.394 36.8057 115.942C36.8057 121.489 41.2668 125.987 46.7698 125.987Z" fill="white"/>
<path d="M48.1964 122.938C51.3139 122.938 53.8411 119.604 53.8411 115.493C53.8411 111.381 51.3139 108.048 48.1964 108.048C45.079 108.048 42.5518 111.381 42.5518 115.493C42.5518 119.604 45.079 122.938 48.1964 122.938Z" fill="#120C38"/>
<path d="M72.4845 305.299C72.1506 305.636 71.8168 305.972 71.4729 306.319C70.3499 307.393 69.1383 308.369 67.8514 309.236C67.2748 309.633 66.6678 310 66.0609 310.367C64.949 310.994 63.8043 311.559 62.6316 312.06C62.2674 312.213 61.9336 312.366 61.5694 312.489C60.6591 312.854 59.7265 313.161 58.7775 313.407C54.4011 314.64 49.8437 315.089 45.3133 314.732C45.1615 314.732 45.0401 314.732 44.8783 314.732C42.0992 314.526 39.3437 314.072 36.644 313.376C28.9863 311.479 21.9355 307.532 17.8892 300.322C7.22705 281.385 25.5165 246.64 48.9853 253.626C49.2325 253.693 49.4756 253.775 49.7137 253.87H49.8047C50.472 254.118 51.0549 254.553 51.4839 255.125C51.351 255.609 51.0585 256.034 50.6544 256.328C49.6428 257.123 48.257 257.154 46.9824 257.348C37.1902 258.51 29.1077 268.035 26.5281 277.173C24.5049 284.373 25.6379 292.613 30.2002 298.528C35.5515 305.483 44.1803 308.858 52.6978 309.225C56.9401 309.407 61.182 308.859 65.2415 307.604C67.666 306.994 70.051 306.234 72.3833 305.33L72.4845 305.299Z" fill="#AB85E5"/>
<path d="M97.8144 307.614C101.883 308.818 106.122 309.335 110.358 309.144C118.886 308.766 127.555 305.391 132.866 298.446C137.428 292.521 138.581 284.281 136.538 277.03C133.938 267.913 125.866 258.368 116.084 257.215C114.79 257.22 113.52 256.867 112.412 256.195C112 255.908 111.705 255.481 111.582 254.992C112.212 254.213 113.086 253.674 114.06 253.462C137.56 246.487 155.849 281.232 145.167 300.169C139.593 310.031 128.415 313.825 117.753 314.59C107.475 315.334 97.3592 312.336 90.5815 305.218C92.9451 306.155 95.36 306.955 97.8144 307.614Z" fill="#AB85E5"/>
<path d="M22.7163 275.963C23.5941 273.147 23.4503 270.594 22.395 270.259C21.3397 269.925 19.7726 271.936 18.8947 274.752C18.0168 277.567 18.1607 280.12 19.2159 280.455C20.2712 280.789 21.8384 278.778 22.7163 275.963Z" fill="#8A48E6"/>
<path d="M32.1818 263.075C34.2519 260.988 35.2959 258.657 34.5137 257.869C33.7315 257.08 31.4193 258.133 29.3492 260.219C27.2792 262.306 26.2352 264.637 27.0174 265.426C27.7996 266.214 30.1118 265.162 32.1818 263.075Z" fill="#8A48E6"/>
<path d="M21.3593 296.466C22.4418 296.236 22.8308 293.709 22.2281 290.821C21.6254 287.933 20.2593 285.778 19.1768 286.007C18.0943 286.237 17.7053 288.764 18.308 291.652C18.9107 294.54 20.2768 296.695 21.3593 296.466Z" fill="#8A48E6"/>
<path d="M31.8335 309.298C32.6526 308.549 31.7215 306.17 29.7539 303.984C27.7863 301.799 25.5273 300.635 24.7082 301.385C23.8891 302.134 24.8202 304.513 26.7878 306.699C28.7554 308.884 31.0144 310.048 31.8335 309.298Z" fill="#8A48E6"/>
<path d="M44.8784 314.651C42.0993 314.445 39.3438 313.991 36.6441 313.294C36.5912 313.169 36.564 313.033 36.564 312.897C36.564 312.76 36.5912 312.625 36.6441 312.499C37.1296 311.479 39.6788 311.704 42.2988 312.958C43.2348 313.395 44.1035 313.965 44.8784 314.651Z" fill="#8A48E6"/>
<path d="M143.542 280.585C144.598 280.25 144.742 277.697 143.864 274.881C142.986 272.066 141.419 270.054 140.363 270.389C139.308 270.723 139.164 273.277 140.042 276.092C140.92 278.908 142.487 280.919 143.542 280.585Z" fill="#8A48E6"/>
<path d="M135.735 265.575C136.518 264.786 135.474 262.455 133.404 260.368C131.333 258.281 129.021 257.229 128.239 258.017C127.457 258.806 128.501 261.137 130.571 263.224C132.641 265.311 134.953 266.363 135.735 265.575Z" fill="#8A48E6"/>
<path d="M144.441 291.8C145.044 288.912 144.655 286.385 143.572 286.155C142.49 285.925 141.124 288.081 140.521 290.969C139.918 293.857 140.307 296.384 141.39 296.614C142.472 296.843 143.838 294.688 144.441 291.8Z" fill="#8A48E6"/>
<path d="M135.953 306.787C137.92 304.602 138.851 302.223 138.032 301.473C137.213 300.724 134.954 301.888 132.986 304.073C131.019 306.258 130.088 308.637 130.907 309.387C131.726 310.136 133.985 308.973 135.953 306.787Z" fill="#8A48E6"/>
<path d="M117.844 314.794C120.622 314.583 123.378 314.129 126.078 313.437C126.131 313.311 126.158 313.176 126.158 313.039C126.158 312.903 126.131 312.768 126.078 312.642C125.592 311.622 123.043 311.846 120.423 313.101C119.485 313.534 118.616 314.104 117.844 314.794Z" fill="#8A48E6"/>
<path d="M81.8111 162.781C81.8111 162.781 81.1738 201.636 81.1738 223.286C81.1738 244.937 81.5279 276.316 81.5279 276.316C81.5279 276.316 82.0843 238.053 82.0843 223.052C82.0843 208.051 81.8415 162.231 81.8415 162.231" fill="#120C38"/>
<path d="M98.6237 93.0471C93.0181 93.0484 87.6195 95.1822 83.5068 99.0221C79.3941 102.862 76.8702 108.125 76.4396 113.759H70.3701C69.9242 107.977 67.2746 102.594 62.977 98.738C58.6794 94.8824 53.0677 92.8544 47.3191 93.0793C41.5705 93.3042 36.1316 95.7646 32.1433 99.9443C28.155 104.124 25.9272 109.698 25.9272 115.498C25.9272 121.298 28.155 126.872 32.1433 131.052C36.1316 135.232 41.5705 137.692 47.3191 137.917C53.0677 138.142 58.6794 136.114 62.977 132.258C67.2746 128.403 69.9242 123.019 70.3701 117.237H76.4396C76.7779 121.586 78.3668 125.742 81.0117 129.195C83.6566 132.648 87.2428 135.249 91.3312 136.679C95.4197 138.109 99.8331 138.306 104.031 137.247C108.229 136.187 112.03 133.917 114.967 130.714C117.905 127.51 119.853 123.513 120.572 119.211C121.291 114.908 120.75 110.488 119.016 106.491C117.281 102.494 114.429 99.0937 110.807 96.7059C107.185 94.3181 102.951 93.0466 98.6237 93.0471ZM48.1961 134.614C44.4428 134.614 40.7737 133.492 37.6529 131.39C34.5321 129.288 32.0997 126.3 30.6633 122.804C29.227 119.308 28.8512 115.462 29.5834 111.75C30.3157 108.039 32.1231 104.63 34.7771 101.955C37.4311 99.2792 40.8126 97.4571 44.4938 96.7189C48.1751 95.9807 51.9908 96.3596 55.4584 97.8076C58.9261 99.2556 61.89 101.708 63.9752 104.854C66.0605 108 67.1735 111.699 67.1735 115.483C67.1748 117.996 66.6848 120.484 65.7316 122.806C64.7784 125.127 63.3806 127.237 61.6181 129.014C59.8556 130.791 57.763 132.2 55.46 133.161C53.157 134.122 50.6886 134.616 48.1961 134.614ZM98.6237 134.614C94.8703 134.614 91.2012 133.492 88.0804 131.39C84.9596 129.288 82.5272 126.3 81.0909 122.804C79.6545 119.308 79.2787 115.462 80.011 111.75C80.7432 108.039 82.5506 104.63 85.2047 101.955C87.8587 99.2792 91.2401 97.4571 94.9214 96.7189C98.6026 95.9807 102.418 96.3596 105.886 97.8076C109.354 99.2556 112.317 101.708 114.403 104.854C116.488 108 117.601 111.699 117.601 115.483C117.601 120.557 115.602 125.423 112.043 129.011C108.484 132.599 103.657 134.614 98.6237 134.614Z" fill="#120C38"/>
<path d="M106.656 123.733L94.2843 115.493L106.656 107.263C106.827 107.149 106.974 107.003 107.088 106.832C107.203 106.661 107.282 106.468 107.323 106.266C107.364 106.064 107.365 105.856 107.326 105.653C107.287 105.451 107.209 105.258 107.096 105.086C106.983 104.914 106.838 104.766 106.668 104.65C106.498 104.535 106.308 104.454 106.107 104.413C105.907 104.372 105.7 104.371 105.499 104.41C105.298 104.449 105.107 104.528 104.936 104.642L90.6123 114.218C90.4387 114.334 90.29 114.484 90.1753 114.659C90.0606 114.835 89.9821 115.031 89.9446 115.238C89.9345 115.333 89.9345 115.429 89.9446 115.523C89.9345 115.622 89.9345 115.721 89.9446 115.819C89.9821 116.026 90.0606 116.222 90.1753 116.398C90.29 116.573 90.4387 116.723 90.6123 116.839L104.936 126.374C105.107 126.488 105.298 126.567 105.499 126.606C105.7 126.645 105.907 126.644 106.107 126.603C106.308 126.562 106.498 126.481 106.668 126.366C106.838 126.251 106.983 126.103 107.096 125.931C107.209 125.758 107.287 125.566 107.326 125.363C107.365 125.161 107.364 124.952 107.323 124.75C107.282 124.548 107.203 124.356 107.088 124.185C106.974 124.014 106.827 123.867 106.656 123.753V123.733Z" fill="#120C38"/>
<path d="M142.486 215.536C141.98 215.536 141.494 215.339 141.13 214.985C140.766 214.631 140.552 214.149 140.534 213.639L136.052 86.2348C136.065 85.7341 136.267 85.2572 136.616 84.9012C136.966 84.5452 137.437 84.3369 137.933 84.3187C138.429 84.3005 138.914 84.4738 139.288 84.8033C139.662 85.1327 139.898 85.5936 139.947 86.092L144.408 213.507C144.419 213.765 144.379 214.022 144.291 214.265C144.202 214.507 144.067 214.729 143.893 214.919C143.719 215.109 143.51 215.262 143.277 215.369C143.044 215.477 142.793 215.537 142.537 215.546L142.486 215.536Z" fill="#2F1300"/>
<path d="M149.102 175.407C148.842 175.403 148.586 175.346 148.348 175.241C148.109 175.136 147.895 174.984 147.716 174.794C147.537 174.604 147.397 174.38 147.305 174.135C147.213 173.89 147.171 173.629 147.18 173.367L147.989 89.1208C148.025 88.6246 148.245 88.1604 148.607 87.8215C148.968 87.4826 149.443 87.2942 149.937 87.2942C150.43 87.2942 150.905 87.4826 151.267 87.8215C151.628 88.1604 151.848 88.6246 151.884 89.1208L151.075 173.367C151.086 173.633 151.043 173.899 150.948 174.149C150.853 174.398 150.709 174.625 150.525 174.816C150.34 175.007 150.119 175.158 149.874 175.259C149.629 175.361 149.367 175.411 149.102 175.407Z" fill="#2F1300"/>
<path d="M129.578 167.034C129.322 167.031 129.068 166.978 128.833 166.876C128.597 166.775 128.383 166.628 128.204 166.443C128.024 166.258 127.883 166.04 127.787 165.8C127.691 165.56 127.643 165.304 127.646 165.045L128.455 80.8094C128.461 80.2909 128.669 79.7955 129.034 79.4308C129.4 79.0661 129.893 78.8615 130.408 78.8616C130.663 78.8642 130.915 78.9175 131.149 79.0184C131.384 79.1193 131.597 79.2657 131.775 79.4495C131.954 79.6332 132.095 79.8505 132.19 80.0891C132.285 80.3277 132.332 80.5829 132.33 80.84L131.52 165.086C131.518 165.604 131.312 166.099 130.948 166.464C130.584 166.829 130.092 167.034 129.578 167.034Z" fill="#2F1300"/>
<path d="M66.8804 71.5596C66.8804 71.5596 92.4533 79.7181 110.945 81.4823C129.437 83.2466 145.845 87.489 157.478 93.0469C169.111 98.6049 184.588 101.307 186.399 101.307C188.21 101.307 187.411 91.4152 185.115 86.4386C182.818 81.4619 142.436 69.9585 138.076 69.2447C133.716 68.5308 66.8804 71.5596 66.8804 71.5596Z" fill="#6A2C39"/>
<path d="M41.54 34.2858C41.54 34.2858 51.5851 46.5234 53.8409 52.1936C56.0968 57.8637 70.785 17.6833 70.785 17.6833C70.785 17.6833 47.0329 21.5994 41.54 34.2858Z" fill="#2F1300"/>
<path d="M85.1192 11.0547C85.1192 11.0547 106.534 1.73372 115.194 4.15066C123.853 6.5676 140.149 10.8814 146.978 15.2257C153.806 19.5701 142.122 27.4634 140.635 27.7388C139.148 28.0141 73.8703 44.1576 72.8588 44.9735C71.8472 45.7893 64.584 33.8474 64.584 33.8474L75.7013 12.2377L85.1192 11.0547Z" fill="#2F1300"/>
<path d="M74.2545 6.50624C74.2545 6.50624 57.8769 45.1875 53.78 53.8456C49.6831 62.5037 71.2198 74.5884 86.8184 76.7402C102.417 78.892 145.49 78.2087 161.676 81.6455C177.861 85.0822 183.445 87.1218 183.445 87.1218C183.445 87.1218 232.679 66.6748 234.48 62.1468C230.686 57.0478 215.704 43.7189 208.178 42.7093C200.652 41.6997 167.452 25.1177 154.645 19.2538C141.839 13.3899 108.436 5.99634 99.4733 11.8908C90.5107 17.7853 85.473 23.0169 84.1074 27.9425C82.7417 32.8682 77.9468 34.143 75.3167 33.0416C72.6865 31.9402 70.7342 28.891 77.4612 21.3648C84.1883 13.8386 92.7665 2.92673 83.8241 0.448598C74.8817 -2.02953 74.2545 6.50624 74.2545 6.50624Z" fill="#894700"/>
<path d="M72.4136 37.2942C73.8197 39.8335 75.0842 42.3932 76.2879 45.0345C77.4917 47.6758 78.6247 50.2967 79.7273 52.9584C80.83 55.6201 81.8618 58.292 82.8329 61.0047C83.804 63.7173 84.7448 66.4504 85.4731 69.2447C84.067 66.7156 82.8127 64.1457 81.6089 61.5044C80.4051 58.8631 79.2721 56.2422 78.1695 53.5907C77.0669 50.9392 76.0249 48.2469 75.0639 45.5342C74.1029 42.8215 73.1925 40.0885 72.4136 37.2942Z" fill="#2F1300"/>
<path opacity="0.28" d="M90.3491 32.2973C90.3491 32.2973 90.9763 69.1021 95.407 70.0301C99.8378 70.9581 111.319 56.946 113.11 48.3695C114.9 39.7929 123.833 25.4952 131.106 23.6188C138.379 21.7423 139.472 17.8773 136.447 17.2348C133.422 16.5923 114.071 11.9216 106.332 16.0518C98.5935 20.182 90.3491 32.2973 90.3491 32.2973Z" fill="#2F1300"/>
<path d="M125.067 45.1263C124.88 45.0898 124.714 44.9843 124.601 44.8305L116.438 34.5203C116.37 34.4353 116.32 34.3378 116.291 34.2333C116.261 34.1289 116.252 34.0195 116.264 33.9115C116.276 33.8035 116.31 33.699 116.362 33.6039C116.414 33.5089 116.485 33.4252 116.569 33.3577C116.653 33.2886 116.75 33.2371 116.853 33.2063C116.957 33.1755 117.066 33.166 117.174 33.1783C117.281 33.1907 117.385 33.2247 117.479 33.2783C117.574 33.3318 117.656 33.4039 117.722 33.4903L125.936 43.8515C126.044 43.985 126.108 44.149 126.118 44.3207C126.129 44.4923 126.086 44.663 125.996 44.809C125.906 44.9549 125.772 45.0689 125.615 45.1349C125.457 45.2009 125.283 45.2157 125.117 45.1773L125.067 45.1263Z" fill="#2F1300"/>
<path d="M116.59 44.6164C116.418 44.5871 116.262 44.501 116.145 44.3716C115.999 44.2086 115.922 43.9942 115.931 43.7748C115.941 43.5553 116.036 43.3485 116.195 43.1989L126.129 34.0206C126.205 33.9432 126.296 33.8818 126.396 33.8399C126.495 33.7979 126.602 33.7764 126.711 33.7764C126.819 33.7764 126.926 33.7979 127.026 33.8399C127.125 33.8818 127.216 33.9432 127.292 34.0206C127.445 34.177 127.53 34.3876 127.53 34.607C127.53 34.8264 127.445 35.037 127.292 35.1934L117.358 44.3716C117.263 44.4775 117.142 44.5559 117.007 44.5989C116.872 44.6419 116.728 44.6479 116.59 44.6164Z" fill="#2F1300"/>
<path d="M129.67 108.048C132.452 108.048 134.707 105.775 134.707 102.97C134.707 100.165 132.452 97.8911 129.67 97.8911C126.887 97.8911 124.632 100.165 124.632 102.97C124.632 105.775 126.887 108.048 129.67 108.048Z" fill="#F7FF1F"/>
<path d="M129.67 148.106C132.452 148.106 134.707 145.832 134.707 143.028C134.707 140.223 132.452 137.949 129.67 137.949C126.887 137.949 124.632 140.223 124.632 143.028C124.632 145.832 126.887 148.106 129.67 148.106Z" fill="#F7FF1F"/>
<path d="M129.67 131.31C132.452 131.31 134.707 127.164 134.707 122.05C134.707 116.936 132.452 112.791 129.67 112.791C126.887 112.791 124.632 116.936 124.632 122.05C124.632 127.164 126.887 131.31 129.67 131.31Z" fill="#FF8F5F"/>
<path d="M127.545 161.048C128.746 161.477 130.057 161.477 131.258 161.048C132.32 163.985 133.281 176.018 133.281 176.018L131.682 174.815L129.659 177.089L128.648 173.479L126.523 176.284L123.873 175.345L127.545 161.048Z" fill="#FFE6CC"/>
<path d="M98.6443 130.698C106.974 130.698 113.727 123.891 113.727 115.493C113.727 107.095 106.974 100.288 98.6443 100.288C90.3143 100.288 83.5615 107.095 83.5615 115.493C83.5615 123.891 90.3143 130.698 98.6443 130.698Z" fill="#120C38"/>
<path d="M85.7362 109.772C79.1103 104.612 66.6779 73.1914 66.1519 71.8555L67.5984 71.2742C67.7299 71.6005 80.395 103.633 86.687 108.528L85.7362 109.772Z" fill="#120C38"/>
<path d="M133.969 153.297C121.212 153.297 107.283 129.332 106.656 128.302L108.001 127.516C108.143 127.761 122.072 151.727 133.928 151.727H134.393L134.474 153.297H133.969Z" fill="#120C38"/>
<path d="M10.6157 244.019L7.51008 267.301C5.69622 270.598 4.35759 274.138 3.53455 277.815C1.97671 284.312 -7.12756 298.405 25.0611 298.63C57.2497 298.854 69.4596 291.246 75.9034 291.246C80.7364 291.359 85.5561 291.805 90.3286 292.582V290.543L101.871 291.216C101.871 291.216 103.621 291.552 103.621 289.421C103.621 287.289 102.184 287.126 102.184 287.126L97.1264 287.014C97.1264 287.014 97.5412 286.739 97.5715 285.393C97.5938 285.032 97.4965 284.674 97.2951 284.375C97.0937 284.076 96.7996 283.853 96.4588 283.74L83.4498 283.608C77.7897 282.751 72.2422 281.26 66.9104 279.162C58.9998 275.888 31.5049 266.404 28.9557 264.721C26.4065 263.038 25.3747 253.391 25.3747 244.417C27.3457 242.67 29.5237 241.177 31.8589 239.97L32.8705 236.697C32.8705 236.697 24.879 230.731 17.2213 230.15C9.5636 229.568 10.474 238.634 10.6157 244.019Z" fill="white"/>
<path d="M26.4169 299.293H25.0412C12.6391 299.201 5.08259 297.069 2.04784 292.776C-0.764371 288.819 0.884514 283.863 2.04784 280.243C2.36143 279.304 2.65479 278.417 2.83687 277.662C3.68592 273.96 5.04808 270.396 6.88322 267.077L9.91797 243.988C9.91797 243.621 9.91797 243.234 9.91797 242.836C9.77635 238.757 9.60438 233.658 12.2851 231.017C12.9591 230.408 13.7554 229.954 14.6196 229.685C15.4839 229.415 16.3956 229.338 17.2924 229.456C25.0513 230.058 32.9518 235.891 33.2856 236.136L33.67 236.421L32.3448 240.399L32.102 240.521C29.9055 241.692 27.8488 243.112 25.9718 244.753C25.9718 255.155 27.3071 262.957 29.2595 264.221C30.6858 265.149 40.9635 268.851 50.0678 272.155C57.1489 274.736 63.8153 277.173 67.1535 278.55C72.4098 280.614 77.8746 282.091 83.4501 282.955L96.6008 283.139C97.0831 283.289 97.5016 283.597 97.7895 284.015C98.0774 284.433 98.2181 284.936 98.1889 285.444C98.1903 285.786 98.1564 286.128 98.0878 286.463L102.215 286.555C102.974 286.637 104.299 287.361 104.299 289.502C104.335 289.881 104.283 290.263 104.145 290.617C104.008 290.971 103.791 291.288 103.51 291.542C103.273 291.727 103.001 291.862 102.71 291.94C102.42 292.017 102.118 292.034 101.821 291.991L91.0067 291.358V293.459L90.248 293.327C85.5088 292.555 80.7231 292.109 75.9239 291.991C74.0424 291.991 71.564 292.694 68.1449 293.673C60.5377 295.744 47.9839 299.293 26.4169 299.293ZM16.5439 230.782C15.9375 230.747 15.3302 230.833 14.7572 231.036C14.1842 231.239 13.6568 231.555 13.2056 231.965C10.9397 234.158 11.1015 239.104 11.1825 242.795C11.1825 243.213 11.1825 243.621 11.1825 244.009L8.05666 267.464L7.98585 267.577C6.22346 270.84 4.92922 274.339 4.14182 277.968C3.94962 278.784 3.64614 279.692 3.32244 280.661C2.149 284.199 0.682197 288.605 3.09989 292.021C5.8514 295.886 13.2157 297.895 25.0513 297.977C47.3062 298.13 60.0926 294.489 67.7503 292.307C71.2707 291.287 73.8198 290.583 75.843 290.583C80.4577 290.686 85.0604 291.099 89.6208 291.817V289.88L101.932 290.604C102.17 290.632 102.41 290.574 102.61 290.441C102.727 290.301 102.815 290.138 102.867 289.963C102.92 289.787 102.935 289.603 102.913 289.421C102.913 288.064 102.215 287.82 102.053 287.789L94.9721 287.626L96.6008 286.565C96.7685 286.213 96.8418 285.823 96.8132 285.433C96.8471 285.224 96.8096 285.009 96.7067 284.824C96.6038 284.638 96.4417 284.494 96.2467 284.414L83.2883 284.24C77.5729 283.37 71.9713 281.862 66.587 279.743C63.269 278.376 56.6027 275.949 49.5519 273.369C39.5372 269.718 30.0789 266.23 28.521 265.211C24.9198 262.875 24.6365 248.659 24.6365 244.356V244.07L24.849 243.876C26.794 242.137 28.9448 240.647 31.2523 239.44L32.0919 236.891C30.4228 235.728 23.6148 231.231 17.171 230.772C16.9687 230.782 16.7563 230.782 16.5439 230.782Z" fill="#120C38"/>
<path d="M21.6016 238.818C21.6016 238.818 29.8359 236.595 32.8706 236.697C35.9054 236.799 46.6585 238.257 48.6615 239.267C50.6644 240.276 46.6383 240.215 46.6383 240.215C46.6383 240.215 37.534 240.276 31.8186 239.97C28.3939 239.783 24.9827 239.398 21.6016 238.818Z" fill="#120C38"/>
<path d="M19.4975 235.728C19.4285 235.73 19.3609 235.708 19.3053 235.667C19.2364 235.618 19.1893 235.543 19.1742 235.459C19.159 235.375 19.1771 235.289 19.2244 235.218C19.2244 235.167 20.0437 234.096 22.3805 234.525C22.4624 234.542 22.5342 234.591 22.581 234.661C22.6278 234.731 22.6459 234.817 22.6316 234.9C22.6172 234.983 22.5714 235.057 22.5038 235.107C22.4363 235.157 22.3522 235.179 22.2692 235.167C20.3675 234.831 19.7807 235.565 19.7605 235.606C19.7281 235.644 19.6878 235.675 19.6424 235.696C19.597 235.717 19.5475 235.728 19.4975 235.728Z" fill="#120C38"/>
<path d="M15.5017 325.685C15.2862 325.646 15.0891 325.537 14.9401 325.375C14.7911 325.214 14.6982 325.007 14.6754 324.788C14.6526 324.568 14.7011 324.347 14.8136 324.158C14.9262 323.968 15.0966 323.821 15.2994 323.737L21.3082 322.442L21.7432 298.619C21.7562 298.358 21.8685 298.111 22.0568 297.931C22.2451 297.751 22.495 297.65 22.7548 297.651C23.0142 297.664 23.2587 297.777 23.4376 297.967C23.6165 298.157 23.7161 298.409 23.7158 298.67L23.2505 324.074L15.6737 325.665C15.6174 325.678 15.5597 325.685 15.5017 325.685Z" fill="#120C38"/>
<path d="M20.6004 327.725C20.4407 327.724 20.284 327.682 20.1451 327.602C19.9217 327.473 19.7555 327.263 19.6803 327.015C19.6051 326.767 19.6267 326.499 19.7405 326.266L21.4096 323.136C21.444 322.982 21.5131 322.839 21.6113 322.718C21.7096 322.596 21.8344 322.498 21.9761 322.433C22.1178 322.368 22.2725 322.337 22.4282 322.342C22.5839 322.347 22.7363 322.388 22.8736 322.462C23.0109 322.536 23.1294 322.641 23.2198 322.769C23.3103 322.897 23.3702 323.044 23.3949 323.199C23.4197 323.354 23.4086 323.513 23.3625 323.663C23.3165 323.813 23.2366 323.95 23.1293 324.064L21.4703 327.194C21.3846 327.352 21.259 327.485 21.1062 327.578C20.9534 327.671 20.7789 327.722 20.6004 327.725Z" fill="#120C38"/>
<path d="M25.1624 325.685C24.9468 325.646 24.7498 325.537 24.6008 325.375C24.4518 325.214 24.3589 325.007 24.3361 324.788C24.3133 324.568 24.3618 324.347 24.4743 324.158C24.5868 323.968 24.7573 323.821 24.9601 323.737L30.9689 322.442L31.4039 298.62C31.4621 298.404 31.5892 298.213 31.7656 298.077C31.9421 297.941 32.158 297.867 32.38 297.867C32.6021 297.867 32.818 297.941 32.9944 298.077C33.1708 298.213 33.298 298.404 33.3562 298.62L32.8707 324.054L25.3343 325.665C25.2781 325.679 25.2203 325.686 25.1624 325.685Z" fill="#120C38"/>
<path d="M30.2708 328C30.1046 327.991 29.9431 327.941 29.8006 327.854C29.6581 327.768 29.5391 327.647 29.454 327.503C29.369 327.358 29.3206 327.195 29.313 327.028C29.3055 326.86 29.3392 326.693 29.411 326.542L31.07 323.411C31.2214 323.244 31.4237 323.132 31.6449 323.094C31.8661 323.055 32.0937 323.092 32.2918 323.199C32.49 323.305 32.6474 323.475 32.7394 323.681C32.8313 323.888 32.8526 324.119 32.7998 324.339L31.1307 327.48C31.0445 327.634 30.9199 327.764 30.7692 327.855C30.6184 327.946 30.4466 327.996 30.2708 328Z" fill="#120C38"/>
</g>
<defs>
<clipPath id="clip0_97_544">
<rect width="234" height="328" fill="white" transform="translate(0.5)"/>
</clipPath>
</defs>
</svg>
