<svg width="186" height="332" viewBox="0 0 186 332" fill="none" xmlns="http://www.w3.org/2000/svg">
<path d="M0.744629 223.491C6.26415 219.814 12.8698 217.149 20.0305 215.71C23.6556 214.98 27.3958 214.613 31.1519 214.619H32.623L34.0941 214.695C35.0356 214.761 35.9771 214.782 36.9333 214.881C38.8288 215.103 40.6844 215.484 42.4646 216.016C45.9408 217.095 49.2221 218.492 52.2326 220.173C55.263 221.799 58.1169 223.556 60.8825 225.335C66.4138 228.925 71.6656 232.657 77.1969 236.073C82.5001 239.586 88.3942 242.576 94.7322 244.967C97.8397 246.107 101.148 246.919 104.559 247.378C105.412 247.466 106.236 247.586 107.133 247.629L109.796 247.782C111.576 247.935 113.371 247.946 115.166 247.989C122.367 248.092 129.565 247.676 136.658 246.745C143.825 245.867 150.87 244.512 157.709 242.697C151.161 245.155 144.249 247.041 137.114 248.317C133.539 248.993 129.906 249.463 126.258 249.888C122.584 250.254 118.886 250.473 115.18 250.543C113.327 250.543 111.473 250.608 109.62 250.543C107.73 250.511 105.845 250.405 103.971 250.226C100.176 249.802 96.4818 248.983 92.9963 247.793C86.2597 245.356 79.9955 242.258 74.3724 238.583C68.7528 235.025 63.4864 231.271 58.1905 227.67C52.8946 224.069 47.3633 220.533 41.1406 218.34C39.6007 217.794 37.9818 217.38 36.3154 217.107C35.4769 216.987 34.5796 216.932 33.7116 216.845L32.4024 216.725H31.0784C27.5406 216.563 23.9894 216.746 20.516 217.27C13.4094 218.29 6.67242 220.409 0.744629 223.491Z" fill="#88F2FF"/>
<path d="M-5.47046 151.084C-3.55654 149.37 -1.41565 147.927 0.892064 146.795C3.19084 145.626 5.56896 144.62 8.00891 143.783C12.9032 142.142 17.9499 140.994 23.0734 140.357C28.1828 139.676 33.3332 139.348 38.4878 139.375C39.7778 139.375 41.0678 139.375 42.3578 139.375L46.2387 139.626C48.8296 139.702 51.3987 140.204 53.9896 140.532C59.1207 141.528 64.1151 143.129 68.8683 145.3C73.5152 147.567 77.9622 150.221 82.1618 153.234C86.2641 156.184 90.5388 158.888 94.9634 161.331C99.4751 163.675 104.244 165.488 109.175 166.733C104.036 166.129 99.0104 164.792 94.2528 162.76C89.5684 160.633 85.0515 158.157 80.7406 155.351C76.5275 152.62 72.1211 150.198 67.5564 148.105C63.0036 146.108 58.2346 144.643 53.3446 143.74C50.8739 143.402 48.4361 142.9 45.9326 142.801L42.1829 142.518L38.4113 142.43C33.3712 142.283 28.3267 142.425 23.303 142.856C18.2801 143.254 13.2994 144.072 8.41339 145.3C5.96682 145.919 3.56081 146.688 1.2091 147.603C0.618759 147.821 0.0393543 148.072 -0.540051 148.334C-1.11946 148.596 -1.63327 148.847 -2.2564 149.142C-3.38269 149.694 -4.45818 150.344 -5.47046 151.084Z" fill="#88F2FF"/>
<path d="M99.2661 135.842C90.8265 145.882 90.8046 205.497 100.195 222.783C106.755 234.732 115.828 238.377 115.828 238.377C115.828 238.377 148.625 264.098 162.345 259.602C176.065 255.106 145.947 213.856 145.947 213.856L128.072 143.645L122.672 121.678C122.672 121.678 107.706 125.814 99.2661 135.842Z" fill="#5224AA"/>
<path d="M179.454 139.378C179.454 139.378 177.781 177.823 208.489 197.324C239.198 216.825 254.262 206.239 274.913 212.372C295.564 218.505 299.478 253.611 297.805 258.063C296.133 262.516 289.989 255.881 289.989 255.881C289.989 255.881 283.845 231.36 267.654 226.908C251.464 222.455 207.932 231.36 191.184 219.105C174.436 206.851 155.294 173.982 157.961 137.468C160.628 100.955 179.454 139.378 179.454 139.378Z" fill="#5224AA"/>
<path d="M182.46 137.272C182.46 137.272 154.036 164.75 169.287 197.749C184.537 230.749 202.914 230.007 216.94 246.332C230.966 262.657 215.191 294.282 211.365 297.119C207.538 299.956 206.008 291.019 206.008 291.019C206.008 291.019 214.163 267.088 202.98 254.582C191.796 242.076 150.363 226.013 142.94 206.654C135.517 187.295 137.288 149.319 159.338 120.074C181.389 90.8279 182.46 137.272 182.46 137.272Z" fill="#5224AA"/>
<path d="M213.485 253.905C211.299 242.207 191.162 233.292 175.223 222.805C159.284 212.318 153.85 178.183 153.85 178.183L139.136 177.092C138.746 183.995 139.194 190.92 140.469 197.717L144.482 209.72C154.834 227.682 192.419 242.687 202.991 254.462C214.174 266.968 206.019 290.888 206.019 290.888C206.019 290.888 206.095 291.379 206.27 292.088C214.043 286.261 215.716 265.604 213.485 253.905Z" fill="#AB85E5"/>
<path d="M180.153 0.99573C151.478 -1.88519 112.767 12.2793 102.076 36.8981C68.8746 44.5369 46.4855 72.1129 49.6012 95.9569C52.9792 122.082 86.694 141.353 124.978 136.421C125.416 136.421 125.82 136.279 126.258 136.213C150.418 133.103 159.163 140.022 181.334 139.323C208.817 138.461 233.174 134.282 242.335 91.8428C251.781 47.8761 219.017 4.89152 180.153 0.99573Z" fill="#8A48E6"/>
<path d="M157.972 137.425C165.662 138.862 173.48 139.498 181.301 139.323C208.785 138.461 233.142 134.282 242.303 91.8427C246.017 74.1705 243.304 55.7556 234.65 39.8989C241.997 55.5366 223.641 81.7814 208.511 85.7317C206.038 86.3513 203.811 87.7052 202.125 89.6146C200.438 91.5239 199.372 93.899 199.066 96.426C195.415 128.902 157.994 137.414 157.972 137.425Z" fill="#5224AA"/>
<path d="M129.461 51.8156C129.461 51.6955 127.723 44.8533 125.088 41.2849C132.27 39.6699 161.022 45.5518 167.472 51.0408C151.216 48.8583 129.69 51.7937 129.461 51.8156Z" fill="#120C38"/>
<path d="M90.7826 56.8026C90.7826 56.8026 90.6733 49.6548 92.324 45.5081C84.9667 45.759 58.653 58.7232 53.7991 65.6745C69.0385 59.3888 90.7826 56.8026 90.7826 56.8026Z" fill="#120C38"/>
<path d="M85.743 100.846C92.0162 100.846 97.1016 95.7695 97.1016 89.5076C97.1016 83.2457 92.0162 78.1694 85.743 78.1694C79.4699 78.1694 74.3845 83.2457 74.3845 89.5076C74.3845 95.7695 79.4699 100.846 85.743 100.846Z" fill="white"/>
<path d="M88.3879 97.1523C91.9149 96.6982 94.2913 92.5941 93.6958 87.9856C93.1003 83.377 89.7583 80.0092 86.2314 80.4634C82.7044 80.9175 80.328 85.0216 80.9235 89.6301C81.519 94.2386 84.861 97.6064 88.3879 97.1523Z" fill="#120C38"/>
<path d="M144.405 93.2942C150.678 93.2942 155.763 88.218 155.763 81.9561C155.763 75.6942 150.678 70.6179 144.405 70.6179C138.132 70.6179 133.046 75.6942 133.046 81.9561C133.046 88.218 138.132 93.2942 144.405 93.2942Z" fill="white"/>
<path d="M147.054 89.592C150.581 89.1379 152.958 85.0338 152.362 80.4253C151.767 75.8167 148.425 72.4489 144.898 72.9031C141.371 73.3572 138.994 77.4613 139.59 82.0698C140.185 86.6783 143.527 90.0461 147.054 89.592Z" fill="#120C38"/>
<path d="M141.092 56.2788C134.755 57.0977 128.961 60.2732 124.867 65.1709C120.773 70.0686 118.681 76.3279 119.009 82.6982L112.144 83.5821C110.803 77.1643 107.024 71.5143 101.6 67.8174C96.1762 64.1204 89.5288 62.6637 83.0523 63.7529C76.5759 64.842 70.7736 68.3924 66.8626 73.6592C62.9516 78.926 61.2358 85.5 62.0751 92.0022C62.9144 98.5044 66.2436 104.43 71.3644 108.535C76.4852 112.64 82.9996 114.606 89.5411 114.021C96.0826 113.436 102.143 110.344 106.451 105.396C110.759 100.447 112.979 94.0254 112.647 87.4779L119.512 86.594C120.523 91.418 122.921 95.8432 126.413 99.3275C129.905 102.812 134.338 105.204 139.172 106.211C144.005 107.219 149.027 106.797 153.624 104.998C158.22 103.2 162.192 100.102 165.052 96.0844C167.912 92.067 169.536 87.3042 169.725 82.3795C169.915 77.4547 168.661 72.5816 166.118 68.3571C163.576 64.1326 159.854 60.7399 155.409 58.5946C150.964 56.4494 145.989 55.6446 141.092 56.2788ZM90.072 110.22C85.8278 110.765 81.5168 110.043 77.6843 108.143C73.8517 106.243 70.6696 103.251 68.5406 99.5452C66.4116 95.8398 65.4312 91.5874 65.7235 87.3258C66.0157 83.0642 67.5675 78.9848 70.1825 75.6036C72.7975 72.2224 76.3583 69.6912 80.4145 68.3302C84.4708 66.9692 88.8402 66.8396 92.9703 67.9576C97.1004 69.0756 100.806 71.3911 103.617 74.6113C106.429 77.8314 108.221 81.8116 108.766 86.0483C109.497 91.728 107.939 97.465 104.433 101.998C100.927 106.531 95.7617 109.488 90.072 110.22ZM147.116 102.886C142.872 103.434 138.561 102.713 134.728 100.815C130.894 98.9166 127.711 95.9262 125.58 92.2219C123.45 88.5176 122.467 84.2658 122.757 80.0042C123.048 75.7426 124.597 71.6626 127.211 68.2801C129.824 64.8977 133.383 62.3648 137.439 61.0018C141.494 59.6387 145.863 59.5067 149.994 60.6225C154.124 61.7383 157.831 64.0518 160.644 67.2703C163.457 70.4888 165.251 74.4679 165.799 78.7042C166.531 84.3834 164.974 90.1202 161.471 94.6545C157.968 99.1887 152.805 102.149 147.116 102.886Z" fill="#120C38"/>
<path d="M105.782 138.178C105.782 138.178 94.8495 226.941 124.017 271.082C153.184 315.223 220.887 328.788 244.555 331.625C248.129 328.231 246.741 326.911 243.461 326.529C240.182 326.147 166.335 308.697 148.275 262.308C129.231 213.431 130.958 173.916 134.402 131.215C137.802 89.1257 105.782 138.178 105.782 138.178Z" fill="#8A48E6"/>
<path d="M154.157 135.613C154.157 135.613 145.225 215.362 179.093 245.83C212.961 276.298 253.53 277.771 256.504 277.4C259.477 277.029 256.504 281.852 256.504 281.852C256.504 281.852 204.816 291.51 175.212 270.711C145.608 249.911 136.949 238.158 134.402 215.242C131.855 192.326 130.958 134.031 130.958 134.031L154.157 135.613Z" fill="#8A48E6"/>
<path d="M137.529 230.116C135.424 222.585 133.785 214.932 132.62 207.2C131.964 203.337 131.527 199.441 131.057 195.556L130.455 189.707L129.996 183.847C129.537 176.033 129.22 168.198 129.417 160.363C129.417 156.445 129.69 152.539 129.887 148.632C129.974 146.679 130.193 144.725 130.357 142.783L130.915 136.945C130.554 144.758 130.182 152.56 130.259 160.374C130.335 168.187 130.543 175.99 131.079 183.781C131.614 191.573 132.423 199.332 133.44 207.08C133.943 210.954 134.533 214.806 135.233 218.658C135.932 222.51 136.654 226.308 137.529 230.116Z" fill="#120C38"/>
<path d="M290.798 254.778C290.634 255.328 290.517 255.89 290.448 256.459L289.869 255.979C289.869 255.979 287.114 244.968 280.412 236.336C278.297 233.513 275.681 231.102 272.694 229.221C271.092 228.235 269.358 227.478 267.545 226.973C251.354 222.521 207.812 231.436 191.02 219.171C187.927 216.856 185.077 214.235 182.515 211.346C180.911 209.578 179.33 207.651 177.77 205.563C172.463 198.305 168.14 190.379 164.914 181.991C165.34 182.668 177.803 202.027 198.924 209.131C220.416 216.355 235.896 219.422 246.577 219.138C257.258 218.854 270.103 218.581 277.351 224.998C277.865 225.445 278.357 225.925 278.838 226.417C282.54 230.398 285.651 234.889 288.076 239.752C289.198 241.811 290.163 243.953 290.962 246.157C291.237 246.937 291.452 247.736 291.607 248.547C291.891 250.522 291.126 252.825 290.798 254.778Z" fill="#AB85E5"/>
<path d="M185.149 211.761C184.679 212.198 183.717 211.99 182.602 211.314C180.999 209.546 179.417 207.618 177.857 205.53C177.745 205.284 177.702 205.011 177.733 204.742C177.764 204.473 177.867 204.217 178.032 204.002C178.841 203.26 181.093 204.395 183.061 206.545C185.029 208.695 186.013 211.019 185.149 211.761Z" fill="#8A48E6"/>
<path d="M179.552 233.942C180.174 233.038 178.733 230.972 176.334 229.328C173.935 227.684 171.486 227.084 170.864 227.988C170.242 228.892 171.683 230.958 174.082 232.602C176.481 234.247 178.93 234.846 179.552 233.942Z" fill="#8A48E6"/>
</svg>
