<svg width="156" height="318" viewBox="0 0 156 318" fill="none" xmlns="http://www.w3.org/2000/svg">
<g clip-path="url(#clip0_97_500)">
<path d="M0.972115 262.78C1.0941 263.605 1.28751 264.418 1.55018 265.209C3.16855 270.148 6.67329 274.247 11.3002 276.612C12.6675 277.35 14.0839 277.994 15.5393 278.539C27.4184 283.079 41.9567 282.395 53.2867 276.159C55.9006 274.692 58.2489 272.796 60.2331 270.549C64.2024 259.494 62.9211 247.233 62.3237 235.716C61.7553 223.985 60.7341 212.284 60.2331 200.545C59.6647 188.497 56.1578 139.138 55.5604 127.09C52.8647 127.755 50.1294 128.247 47.3712 128.565C47.5639 135.022 50.6662 178.81 50.8107 185.268C51.0515 195.195 51.6489 205.075 51.909 215.002C52.1691 224.93 52.9495 235.166 49.9051 244.593C47.0147 253.547 40.5983 259.147 33.228 260.217C30.654 260.599 28.0286 260.438 25.5205 259.744C22.7361 258.973 19.0944 257.527 17.813 254.26C17.7494 254.158 17.7007 254.048 17.6685 253.932C16.811 251.262 17.8804 248.149 19.3352 245.807C22.0232 241.383 25.4049 239.523 29.326 237.132C32.1393 235.397 33.9024 229.971 29.0177 230.202C24.952 230.395 20.3468 230.52 16.4931 232.371C9.74902 235.59 4.43085 244.091 2.04153 251.85C0.877525 255.369 0.512194 259.103 0.972115 262.78Z" fill="#5224AA"/>
<path d="M159.814 262.78C159.7 263.606 159.509 264.419 159.245 265.209C157.624 270.149 154.116 274.248 149.486 276.611C148.119 277.352 146.703 277.996 145.247 278.539C133.377 283.079 118.829 282.394 107.509 276.158C104.886 274.709 102.527 272.825 100.534 270.587C96.5545 259.532 97.8455 247.272 98.4332 235.754C99.0305 224.033 100.052 212.323 100.601 200.583C101.169 188.535 104.686 139.176 105.283 127.128C107.961 127.778 110.677 128.258 113.415 128.564C113.232 135.022 110.12 178.81 109.975 185.267C109.744 195.195 109.147 205.075 108.886 215.002C108.626 224.93 107.836 235.166 110.881 244.592C113.771 253.547 120.188 259.146 127.568 260.216C130.141 260.6 132.767 260.439 135.275 259.744C138.059 258.973 141.701 257.527 142.983 254.26C143.042 254.156 143.091 254.046 143.127 253.932C143.975 251.262 142.905 248.149 141.46 245.807C138.763 241.383 135.391 239.523 131.46 237.132C128.656 235.397 126.893 229.971 131.768 230.202C135.843 230.395 140.439 230.52 144.293 232.371C151.037 235.59 156.355 244.091 158.744 251.85C159.909 255.369 160.274 259.103 159.814 262.78Z" fill="#5224AA"/>
<path d="M148.754 2.52199C119.388 -4.30206 77.2762 5.24004 62.9114 29.423C27.4762 32.8736 0.5 58.6083 0.5 83.8129C0.5 111.437 32.9004 135.996 73.2972 135.996C73.7501 135.996 74.1933 135.996 74.6557 135.947C100.148 135.947 108.299 144.323 131.392 146.55C160.035 149.326 185.875 148.246 201.068 105.336C216.811 60.883 188.563 11.7846 148.754 2.52199Z" fill="#8A48E6"/>
<path d="M76.2743 295.869C74.707 299.704 72.4174 303.202 69.5302 306.173C69.1846 306.589 68.8077 306.979 68.403 307.339C67.0659 308.608 65.6218 309.759 64.0868 310.78C63.4027 311.252 62.6802 311.695 61.9479 312.129C60.6318 312.845 59.2778 313.488 57.8919 314.057C57.4583 314.24 57.0537 314.423 56.6201 314.568C55.5313 314.996 54.4182 315.359 53.2867 315.657C48.0614 317.108 42.6227 317.633 37.2165 317.209C37.0335 317.209 36.889 317.209 36.7155 317.209C33.3996 316.962 30.1115 316.427 26.8885 315.609C17.7455 313.363 9.33468 308.679 4.50787 300.187C-8.21913 277.768 13.6123 236.621 41.6098 244.891C41.9045 244.973 42.194 245.073 42.4769 245.19C42.4769 245.19 42.554 245.19 42.5829 245.19C43.3039 245.451 43.9378 245.909 44.4134 246.51C44.4728 246.563 44.5276 246.622 44.5772 246.684C44.5772 246.684 44.7891 246.877 44.847 247.012C45.7526 248.939 44.0473 251.079 42.342 252.419C37.1876 256.486 30.7326 259.06 26.4935 264.101C21.3487 270.163 20.4431 279.628 24.7497 286.269C32.2934 298.018 48.3828 295.31 54.2597 283.744C59.9536 272.534 58.1135 258.597 58.6145 246.482C58.9709 237.045 58.6145 227.58 58.2869 218.183C57.6703 199.214 56.4756 180.275 54.9823 161.316C54.1152 150 53.1261 138.682 52.0149 127.36L80.4074 118.396V255.493C80.4074 268.737 81.5635 283.252 76.2743 295.869Z" fill="#8A48E6"/>
<path d="M80.3978 118.396V255.494C80.3978 268.727 79.232 283.262 84.502 295.879C91.063 311.695 107.201 318.442 123.598 317.238C136.325 316.322 149.669 311.84 156.355 300.168C169.111 277.739 147.28 236.612 119.253 244.862C118.596 244.981 117.97 245.235 117.416 245.608C116.862 245.981 116.392 246.466 116.035 247.031C115.13 248.959 116.845 251.118 118.531 252.457C123.714 256.525 130.092 259.098 134.408 264.12C139.553 270.192 140.458 279.657 136.133 286.288C128.56 297.961 112.461 295.233 106.584 283.696C100.871 272.486 102.73 258.53 102.248 246.404C101.882 237.007 102.248 227.532 102.547 218.125C103.183 199.157 104.368 180.207 105.842 161.258C106.719 149.923 107.682 138.588 108.838 127.273L80.3978 118.396Z" fill="#8A48E6"/>
<path d="M107.441 141.461C115.226 143.991 123.253 145.699 131.392 146.56C160.035 149.335 185.875 148.256 201.068 105.345C207.286 87.4533 206.924 67.9298 200.047 50.2808C205.567 67.5336 183.013 92.372 166.77 94.4732C164.121 94.7864 161.63 95.8955 159.625 97.6541C157.619 99.4127 156.194 101.738 155.536 104.324C147.453 137.605 107.441 141.461 107.441 141.461Z" fill="#5224AA"/>
<path d="M89.3384 48.5651C89.3384 48.4301 88.4714 41.0856 86.2073 36.9989C93.9148 36.276 122.924 46.2422 128.897 52.8156C112.307 48.4205 89.5793 48.5651 89.3384 48.5651Z" fill="#120C38"/>
<path d="M51.7068 44.9794C51.7068 44.9794 50.8878 37.5289 52.2077 33.0374C44.5677 34.0012 18.4297 50.1457 14.0557 57.8661C29.3358 49.8179 51.7068 44.9794 51.7068 44.9794Z" fill="#120C38"/>
<path d="M100.813 93.9238C107.379 93.9238 112.702 88.5987 112.702 82.0299C112.702 75.4611 107.379 70.136 100.813 70.136C94.2471 70.136 88.9243 75.4611 88.9243 82.0299C88.9243 88.5987 94.2471 93.9238 100.813 93.9238Z" fill="white"/>
<path d="M102.518 90.2515C106.238 90.2515 109.253 86.303 109.253 81.4322C109.253 76.5615 106.238 72.613 102.518 72.613C98.799 72.613 95.7839 76.5615 95.7839 81.4322C95.7839 86.303 98.799 90.2515 102.518 90.2515Z" fill="#120C38"/>
<path d="M69.5976 306.144C69.2026 306.539 68.798 306.934 68.3644 307.339C67.0396 308.606 65.6084 309.758 64.0868 310.78C63.4027 311.252 62.6802 311.696 61.9479 312.129C60.6318 312.845 59.2778 313.489 57.8919 314.057C57.4583 314.24 57.0537 314.423 56.6201 314.568C55.5313 314.996 54.4182 315.36 53.2867 315.657C48.0614 317.108 42.6227 317.633 37.2165 317.209C37.0335 317.209 36.889 317.209 36.7155 317.209C33.3996 316.962 30.1115 316.427 26.8885 315.609C17.7455 313.363 9.33468 308.679 4.50787 300.187C-8.21913 277.768 13.6123 236.622 41.6098 244.891C41.9045 244.974 42.194 245.073 42.4769 245.19C42.4769 245.19 42.554 245.19 42.5829 245.19C43.38 245.481 44.0737 246.001 44.5772 246.684C44.4366 247.254 44.0944 247.754 43.6138 248.091C42.4095 249.055 40.7234 249.055 39.2205 249.258C27.4762 250.636 17.8418 261.913 14.7685 272.727C12.3406 281.257 13.7183 291.04 19.1617 298.019C25.5397 306.25 35.8388 310.24 45.9934 310.674C51.051 310.933 56.1154 310.32 60.9652 308.862C63.8615 308.147 66.7094 307.249 69.4917 306.173C69.4917 306.173 69.5591 306.144 69.5976 306.144Z" fill="#AB85E5"/>
<path d="M99.8208 308.881C104.675 310.318 109.734 310.944 114.793 310.732C124.957 310.279 135.266 306.288 141.634 298.067C147.077 291.04 148.455 281.296 146.008 272.756C142.925 261.961 133.291 250.655 121.614 249.306C120.091 249.123 118.444 249.074 117.23 248.139C116.749 247.794 116.408 247.288 116.267 246.713C117.02 245.792 118.062 245.154 119.224 244.901C147.231 236.612 169.101 277.739 156.307 300.129C149.669 311.802 136.325 316.284 123.598 317.199C111.353 318.067 99.2716 314.529 91.198 306.105C94.0179 307.192 96.8967 308.118 99.8208 308.881Z" fill="#AB85E5"/>
<path d="M21.5152 256.162C23.9872 253.689 25.2347 250.928 24.3016 249.994C23.3685 249.061 20.6082 250.309 18.1362 252.782C15.6643 255.255 14.4168 258.016 15.3499 258.95C16.283 259.883 19.0433 258.635 21.5152 256.162Z" fill="#8A48E6"/>
<path d="M21.1142 310.871C22.0913 309.984 20.9787 307.165 18.6291 304.576C16.2795 301.986 13.5827 300.606 12.6056 301.494C11.6285 302.381 12.7411 305.199 15.0907 307.789C17.4403 310.379 20.1371 311.759 21.1142 310.871Z" fill="#8A48E6"/>
<path d="M36.6771 317.209C33.3612 316.962 30.0731 316.426 26.85 315.609C26.7814 315.457 26.7458 315.293 26.7458 315.127C26.7458 314.961 26.7814 314.796 26.85 314.645C27.4281 313.45 30.434 313.681 33.5941 315.194C34.7147 315.711 35.7534 316.39 36.6771 317.209Z" fill="#8A48E6"/>
<path d="M154.381 276.882C155.64 276.487 155.811 273.461 154.763 270.125C153.714 266.788 151.844 264.404 150.585 264.8C149.326 265.196 149.155 268.222 150.204 271.558C151.252 274.895 153.122 277.278 154.381 276.882Z" fill="#8A48E6"/>
<path d="M145.064 259.108C145.998 258.175 144.75 255.413 142.278 252.94C139.806 250.467 137.046 249.219 136.113 250.153C135.18 251.086 136.427 253.848 138.899 256.32C141.371 258.793 144.131 260.041 145.064 259.108Z" fill="#8A48E6"/>
<path d="M155.456 290.155C156.176 286.732 155.712 283.737 154.421 283.466C153.13 283.194 151.499 285.748 150.78 289.17C150.06 292.593 150.523 295.588 151.815 295.859C153.106 296.131 154.736 293.577 155.456 290.155Z" fill="#8A48E6"/>
<path d="M145.327 307.913C147.677 305.324 148.79 302.505 147.812 301.618C146.835 300.731 144.139 302.111 141.789 304.7C139.439 307.29 138.327 310.108 139.304 310.996C140.281 311.883 142.978 310.503 145.327 307.913Z" fill="#8A48E6"/>
<path d="M123.743 317.373C127.059 317.13 130.348 316.594 133.57 315.773C133.64 315.622 133.677 315.457 133.677 315.291C133.677 315.124 133.64 314.96 133.57 314.809C132.992 313.604 129.986 313.845 126.826 315.349C125.706 315.872 124.668 316.554 123.743 317.373Z" fill="#8A48E6"/>
<path d="M80.4653 138.916C80.4653 138.916 79.7139 184.921 79.7139 210.549C79.7139 236.178 80.1378 273.296 80.1378 273.296C80.1378 273.296 80.7929 227.995 80.7929 210.241C80.7929 192.487 80.5039 138.232 80.5039 138.232" fill="#120C38"/>
<path d="M100.813 54.8494C94.1197 54.8521 87.6743 57.3837 82.767 61.9375C77.8597 66.4912 74.8526 72.7311 74.3474 79.4082H67.1024C66.5694 72.5574 63.4054 66.1792 58.2741 61.6114C53.1427 57.0436 46.4427 54.6412 39.5792 54.908C32.7158 55.1748 26.2223 58.0901 21.4607 63.0424C16.6991 67.9947 14.0393 74.5993 14.0393 81.4708C14.0393 88.3424 16.6991 94.947 21.4607 99.8993C26.2223 104.852 32.7158 107.767 39.5792 108.034C46.4427 108.301 53.1427 105.898 58.2741 101.33C63.4054 96.7625 66.5694 90.3843 67.1024 83.5335H74.3474C74.7502 88.6858 76.6461 93.6088 79.8029 97.6997C82.9596 101.791 87.2403 104.872 92.1206 106.566C97.001 108.26 102.269 108.494 107.28 107.239C112.292 105.983 116.828 103.293 120.334 99.4982C123.841 95.703 126.165 90.9672 127.022 85.8708C127.879 80.7744 127.233 75.5385 125.161 70.8043C123.089 66.07 119.682 62.0429 115.358 59.2159C111.033 56.389 105.979 54.8849 100.813 54.8879V54.8494ZM40.6271 104.083C36.1492 104.083 31.7718 102.754 28.0486 100.265C24.3253 97.7766 21.4234 94.2391 19.7098 90.1002C17.9962 85.9614 17.5478 81.4072 18.4214 77.0134C19.295 72.6197 21.4513 68.5837 24.6177 65.416C27.7841 62.2483 31.8182 60.0911 36.2101 59.2171C40.602 58.3431 45.1543 58.7917 49.2914 60.506C53.4284 62.2204 56.9644 65.1235 59.4522 68.8484C61.94 72.5732 63.2679 76.9525 63.2679 81.4323C63.2679 84.4068 62.6823 87.3522 61.5444 90.1002C60.4066 92.8483 58.7389 95.3453 56.6366 97.4486C54.5342 99.5519 52.0383 101.22 49.2914 102.359C46.5445 103.497 43.6003 104.083 40.6271 104.083ZM100.813 104.083C96.3347 104.085 91.9564 102.758 88.2318 100.27C84.5073 97.7824 81.6039 94.2456 79.8888 90.1069C78.1737 85.9683 77.724 81.4137 78.5965 77.0193C79.469 72.6249 81.6245 68.5881 84.7905 65.4194C87.9565 62.2507 91.9907 60.0925 96.3828 59.2178C100.775 58.343 105.328 58.791 109.465 60.5051C113.603 62.2192 117.14 65.1223 119.628 68.8474C122.116 72.5724 123.444 76.9521 123.444 81.4323C123.444 87.4379 121.06 93.1977 116.816 97.4452C112.572 101.693 106.816 104.08 100.813 104.083Z" fill="#120C38"/>
<path d="M26.3682 84.2755C26.4016 84.7345 26.6075 85.1638 26.9444 85.4772C27.2813 85.7906 27.7242 85.9647 28.1842 85.9647C28.6443 85.9647 29.0872 85.7906 29.4241 85.4772C29.761 85.1638 29.9669 84.7345 30.0003 84.2755C30.0003 84.2177 30.0003 84.1695 30.0003 84.1213H30.0485C30.0485 82.7644 30.3156 81.4208 30.8347 80.1672C31.3537 78.9136 32.1145 77.7746 33.0735 76.8151C34.0325 75.8557 35.1711 75.0946 36.4242 74.5753C37.6772 74.0561 39.0202 73.7888 40.3765 73.7888C41.7328 73.7888 43.0758 74.0561 44.3289 74.5753C45.582 75.0946 46.7205 75.8557 47.6796 76.8151C48.6386 77.7746 49.3994 78.9136 49.9184 80.1672C50.4374 81.4208 50.7046 82.7644 50.7046 84.1213H50.7527C50.7527 84.1213 50.7527 84.2177 50.7527 84.2755C50.7862 84.7345 50.992 85.1638 51.3289 85.4772C51.6658 85.7906 52.1088 85.9647 52.5688 85.9647C53.0288 85.9647 53.4718 85.7906 53.8087 85.4772C54.1456 85.1638 54.3515 84.7345 54.3849 84.2755C54.3904 84.2242 54.3904 84.1725 54.3849 84.1213C54.4547 82.2423 54.145 80.3685 53.4743 78.612C52.8037 76.8554 51.7859 75.2522 50.4818 73.8982C49.1777 72.5442 47.6141 71.4672 45.8844 70.7315C44.1548 69.9959 42.2946 69.6167 40.4151 69.6167C38.5356 69.6167 36.6754 69.9959 34.9457 70.7315C33.216 71.4672 31.6524 72.5442 30.3483 73.8982C29.0442 75.2522 28.0264 76.8554 27.3558 78.612C26.6852 80.3685 26.3755 82.2423 26.4452 84.1213C26.4135 84.1694 26.3876 84.2212 26.3682 84.2755Z" fill="#120C38"/>
<path d="M135.998 127.273H29.1043C24.2091 127.273 20.2407 131.243 20.2407 136.14V198.231C20.2407 203.129 24.2091 207.099 29.1043 207.099H135.998C140.893 207.099 144.861 203.129 144.861 198.231V136.14C144.861 131.243 140.893 127.273 135.998 127.273Z" fill="#AFAFAF"/>
<path d="M78.0663 160.487C78.0685 159.892 78.1902 159.303 78.424 158.755C78.6578 158.207 78.999 157.712 79.4275 157.299C79.856 156.885 80.363 156.562 80.9186 156.348C81.4741 156.134 82.0669 156.034 82.6618 156.053C83.2857 156.073 83.8986 156.222 84.4619 156.491C85.0251 156.761 85.5263 157.144 85.9339 157.617C86.3414 158.09 86.6464 158.642 86.8294 159.239C87.0125 159.836 87.0696 160.464 86.9973 161.085C86.9973 161.277 86.8046 161.595 86.6794 161.615C86.3788 161.672 86.0677 161.61 85.8123 161.441C84.7043 160.391 84.1648 160.381 83.028 161.441C82.9674 161.509 82.8932 161.564 82.8102 161.601C82.7271 161.638 82.6372 161.657 82.5462 161.657C82.4553 161.657 82.3653 161.638 82.2823 161.601C82.1993 161.564 82.1251 161.509 82.0645 161.441C81.1011 160.41 80.3014 160.42 79.3476 161.441C79.2204 161.536 79.0757 161.604 78.9219 161.642C78.7681 161.68 78.6082 161.687 78.4516 161.663C78.3167 161.663 78.2011 161.258 78.1241 161.017C78.0742 160.845 78.0546 160.666 78.0663 160.487Z" fill="#8A48E6"/>
<path d="M78.3072 166.155C79.8006 167.195 80.3594 167.186 81.6407 166.212C81.8857 166.001 82.1986 165.884 82.5223 165.884C82.846 165.884 83.1588 166.001 83.4038 166.212C84.8297 167.176 85.2054 167.176 86.6506 166.261C86.8198 166.533 86.8971 166.852 86.871 167.171C86.845 167.491 86.7171 167.793 86.5061 168.034C86.3219 168.34 86.0489 168.582 85.7236 168.728C85.3982 168.875 85.036 168.918 84.6852 168.853C84.3091 168.771 83.9546 168.61 83.6447 168.381C83.331 168.088 82.9151 167.931 82.4864 167.941C82.0576 167.952 81.6502 168.131 81.3517 168.439C81.1132 168.645 80.8263 168.788 80.5177 168.854C80.2091 168.92 79.8889 168.907 79.5869 168.815C79.2849 168.724 79.0109 168.557 78.7905 168.331C78.5701 168.106 78.4105 167.827 78.3265 167.523C78.259 167.07 78.2525 166.61 78.3072 166.155Z" fill="#8A48E6"/>
<path d="M79.1935 165.682C80.0606 164.583 79.338 163.755 78.6636 162.791L78.8177 162.656C79.0099 162.75 79.1882 162.87 79.3476 163.012C79.4896 163.229 79.6833 163.407 79.9112 163.53C80.1391 163.653 80.394 163.718 80.6531 163.718C80.9121 163.718 81.1671 163.653 81.395 163.53C81.6229 163.407 81.8166 163.229 81.9585 163.012C82.0192 162.911 82.1052 162.826 82.2082 162.768C82.3113 162.709 82.4277 162.678 82.5462 162.678C82.6647 162.678 82.7812 162.709 82.8842 162.768C82.9872 162.826 83.0733 162.911 83.1339 163.012C83.2748 163.223 83.4654 163.396 83.6889 163.515C83.9124 163.635 84.1619 163.697 84.4153 163.697C84.6687 163.697 84.9182 163.635 85.1417 163.515C85.3652 163.396 85.5558 163.223 85.6967 163.012C85.859 162.862 86.0366 162.73 86.2266 162.617L86.3518 162.742C86.3065 162.878 86.2451 163.007 86.1687 163.128C85.8615 163.404 85.6507 163.77 85.5675 164.175C85.4842 164.579 85.5329 164.999 85.7063 165.374C85.7069 165.463 85.6852 165.552 85.6431 165.631C85.6011 165.71 85.54 165.777 85.4654 165.827C85.2101 165.957 84.9201 166.004 84.6366 165.961C84.3531 165.918 84.0903 165.787 83.8854 165.586C83.7149 165.401 83.5078 165.253 83.2773 165.152C83.0468 165.051 82.7979 164.998 82.5462 164.998C82.2946 164.998 82.0456 165.051 81.8151 165.152C81.5846 165.253 81.3776 165.401 81.207 165.586C80.9419 165.847 80.5901 166.001 80.2186 166.019C79.8472 166.036 79.4823 165.917 79.1935 165.682Z" fill="#8A48E6"/>
<path d="M77.8446 168.892C77.4951 168.881 77.1534 168.786 76.8488 168.614C76.5443 168.442 76.2862 168.198 76.0966 167.904C75.907 167.61 75.7917 167.275 75.7605 166.926C75.7294 166.578 75.7833 166.227 75.9178 165.904C76.4036 166.281 76.8463 166.711 77.2377 167.186C77.5084 167.728 77.7122 168.301 77.8446 168.892Z" fill="#8A48E6"/>
<path d="M87.2092 168.911C87.4993 167.741 88.1789 166.704 89.1361 165.971C89.8105 167.196 88.8856 168.661 87.2092 168.911Z" fill="#8A48E6"/>
<path d="M48.0746 176.757C45.271 176.872 42.5926 173.721 48.0746 174.068C53.5565 174.415 68.9619 150.714 35.8196 150.849C28.2374 150.849 23.295 153.085 20.2216 156.477C9.77796 167.899 20.2216 192.747 20.2216 192.747V202.945C20.2216 204.06 20.6639 205.13 21.4513 205.919C22.2388 206.709 23.3072 207.154 24.4222 207.157H47.14C47.14 207.157 32.438 216.217 18.0828 214.231C3.72758 212.246 2.21498 197.152 2.42694 174.733C2.61963 157.461 12.5527 147.475 20.1927 143.176C22.0337 142.096 24.0284 141.303 26.1082 140.825C32.8523 139.485 62.16 136.439 63.451 156.063C64.742 175.687 50.8782 176.593 48.0746 176.757Z" fill="#8A48E6"/>
<path d="M20.212 202.906V192.709C20.212 192.709 9.76833 167.861 20.212 156.439C23.3046 153.046 28.2374 150.839 35.81 150.81C37.9988 150.792 40.1867 150.908 42.3614 151.157C37.4382 148.767 23.9019 148.747 19.7495 152.073C15.0769 155.812 9.94175 159.465 8.84343 179.706C7.74512 199.947 20.212 202.906 20.212 202.906Z" fill="#AB85E5"/>
<path d="M109.368 206.193C109.368 206.193 114.185 216.246 123.627 216.246C133.069 216.246 137.501 213.961 138.271 206.193C139.042 198.424 129.273 193.663 126.007 182.521C122.741 171.378 125.631 171.215 128.695 163.928C131.758 156.641 122.635 132.584 114.012 129.702C105.389 126.82 110.582 130.762 112.451 132.439C118.925 138.222 119.879 148.073 119.735 156.4C119.638 161.991 110.023 167.648 108.607 173.364C106.757 180.766 112.605 190.386 116.141 193.296C124.195 199.908 123.666 206.193 120.746 206.193H109.368Z" fill="#8A48E6"/>
<path d="M19.3311 198.391C20.1921 197.896 19.9843 195.917 18.8669 193.972C17.7495 192.027 16.1456 190.852 15.2846 191.347C14.4236 191.842 14.6314 193.82 15.7488 195.765C16.8662 197.71 18.47 198.886 19.3311 198.391Z" fill="#8A48E6"/>
<path d="M14.9833 177.855C15.2193 175.632 14.6127 173.745 13.6285 173.64C12.6444 173.536 11.6553 175.253 11.4194 177.477C11.1834 179.7 11.79 181.587 12.7742 181.691C13.7583 181.796 14.7474 180.078 14.9833 177.855Z" fill="#8A48E6"/>
<path d="M19.1214 159.89C20.3937 158.052 20.7654 156.105 19.9517 155.542C19.138 154.978 17.4471 156.011 16.1749 157.849C14.9027 159.687 14.5309 161.634 15.3446 162.198C16.1583 162.762 17.8492 161.729 19.1214 159.89Z" fill="#8A48E6"/>
</g>
<defs>
<clipPath id="clip0_97_500">
<rect width="205" height="317" fill="white" transform="translate(0.5 0.372559)"/>
</clipPath>
</defs>
</svg>
