<svg width="109" height="200" viewBox="0 0 109 200" fill="none" xmlns="http://www.w3.org/2000/svg">
<path d="M86.59 74.7301C70.53 66.9101 47.65 71.9101 31.23 87.0001L30.86 87.3301C30.4368 82.7628 30.3432 78.1709 30.58 73.5901C30.6622 70.5217 31.1395 67.4766 32 64.5301C34.54 57.3901 45.65 40.2501 46.6 27.8701C47.55 15.4901 40.53 1.69011 20.69 0.100115C0.850023 -1.48989 -0.089977 15.8601 2.30074e-05 17.8801C0.090023 19.9001 2.80002 21.8801 2.80002 17.6201C2.80002 13.3601 7.89002 9.62011 15.92 10.4201C23.95 11.2201 31.17 30.3101 17.2 53.5701C7.70002 69.4101 0.740023 85.2501 3.26002 101.62C4.18146 107.39 6.15414 112.942 9.08002 118C9.07674 118.023 9.07674 118.047 9.08002 118.07C5.78002 126.42 3.52002 136.24 1.93002 148.82C-1.86998 178.82 7.00002 197.9 7.00002 197.9C14.4194 199.063 21.9038 199.764 29.41 200C36.4384 200.14 43.4005 198.619 49.73 195.56C44.6879 181.879 41.9147 167.466 41.52 152.89V152.63C41.52 152.08 41.52 151.53 41.52 151C41.52 150.75 41.52 150.5 41.52 150.25C45.8181 152.424 50.3842 154.021 55.1 155C58.04 155.62 61.05 156.07 64.17 156.46C81.52 158.57 102.68 146.3 106.9 121.33C111.12 96.3601 103.1 82.7701 86.59 74.7301ZM68.77 130.07C64.2018 130.101 59.7196 128.828 55.85 126.4C52.5316 124.41 49.4661 122.026 46.72 119.3C46.85 118.92 46.99 118.55 47.14 118.17C47.29 117.79 47.35 117.61 47.46 117.33C47.72 116.62 48.01 115.95 48.28 115.33C48.2833 115.307 48.2833 115.283 48.28 115.26C55.12 99.4601 64.9 95.8201 71.59 95.8201C80.31 95.8201 87.14 102.96 86.83 109.94C86.52 116.92 84 129.42 68.77 130.07Z" fill="#8A48E6"/>
<path d="M31.72 17.4802C33.63 27.3102 32.72 43.8202 23.48 59.0602C14.24 74.3002 14.27 84.1302 15.22 105.06C15.22 105.31 15.22 105.55 15.22 105.8C12.6893 109.771 10.5493 113.977 8.82999 118.36C5.90736 126.112 3.83847 134.16 2.65999 142.36V142.3C3.84111 134.102 5.90304 126.056 8.80999 118.3C8.83425 118.252 8.85433 118.202 8.86999 118.15C5.01933 111.571 2.84231 104.147 2.52999 96.5302C2.52999 96.0602 2.52999 95.5302 2.52999 95.1002C2.52999 94.6702 2.52999 94.2302 2.52999 93.8002C2.52999 93.3702 2.52999 92.9502 2.52999 92.5302C3.19999 79.3802 9.23999 66.5302 17 53.6602C22.38 44.6602 24.62 36.3402 24.88 29.4402C24.88 28.7302 24.88 28.0502 24.88 27.3902C24.69 17.5002 20.34 10.9802 15.71 10.4902C7.70999 9.65018 2.83999 13.3902 2.83999 17.6102C2.86839 18.3143 2.73497 19.0156 2.44999 19.6602C1.99793 19.2169 1.65579 18.6741 1.45091 18.0751C1.24602 17.4761 1.18406 16.8374 1.26999 16.2102C2.26999 10.2102 4.61999 8.64018 8.99999 5.66018C16.73 0.390182 29.81 7.64018 31.72 17.4802Z" fill="#AB85E5"/>
<path d="M108 110.58C107.895 114.212 107.527 117.831 106.9 121.41C102.67 146.41 81.5201 158.65 64.1601 156.53C56.1601 155.53 48.9001 154.12 41.5001 150.43C41.5155 146.3 41.796 142.175 42.3401 138.08C48.5401 141.17 54.7701 143.01 59.6901 143.21C75.0401 143.84 90.9701 139.08 96.0601 121.62C101.15 104.16 89.7201 90.2101 68.4601 83.5501C55.0901 79.3401 40.2001 84.8301 31.0001 89.4601C29.4732 90.1008 28.0455 90.9561 26.7601 92.0001C25.3401 93.3301 23.9701 94.7001 22.6301 96.1201C23.2701 95.4501 23.7901 94.6301 24.3601 93.9101C25.9909 91.7529 27.9086 89.8284 30.0601 88.1901C30.2495 88.067 30.427 87.9264 30.5901 87.7701C30.8801 87.4801 31.0901 87.1401 31.4001 86.8701L32.3401 86.0401C33.0101 85.4501 33.7001 84.8701 34.3401 84.3201C35.7201 83.2068 37.1401 82.1601 38.6001 81.1801C41.4563 79.2668 44.4667 77.5944 47.6001 76.1801C50.6293 74.7851 53.7746 73.6575 57.0001 72.8101C60.0977 71.9935 63.2648 71.4679 66.4601 71.2401C69.4982 71.0132 72.5517 71.107 75.5701 71.5201C78.5 71.9196 81.373 72.6614 84.1301 73.7301C84.9601 74.0601 85.9001 74.4701 86.7001 74.8701C99.9301 81.3101 107.56 91.3301 107.94 107.87C108 108.73 108 109.65 108 110.58Z" fill="#AB85E5"/>
<path d="M106.074 116.827C106.366 114.215 105.744 112.001 104.685 111.883C103.625 111.764 102.53 113.786 102.238 116.399C101.947 119.012 102.569 121.226 103.628 121.344C104.688 121.462 105.783 119.44 106.074 116.827Z" fill="#8A48E6"/>
<path d="M11.1465 113.064C12.1251 112.642 12.0737 110.343 11.0318 107.929C9.98985 105.516 8.35187 103.902 7.37325 104.324C6.39464 104.747 6.44598 107.046 7.48793 109.459C8.52988 111.873 10.1679 113.487 11.1465 113.064Z" fill="#8A48E6"/>
<path d="M9.71292 89.2189C10.0046 86.6062 9.38228 84.3924 8.32295 84.2741C7.26362 84.1559 6.16842 86.178 5.87675 88.7906C5.58508 91.4033 6.20739 93.6171 7.26672 93.7354C8.32605 93.8536 9.42125 91.8315 9.71292 89.2189Z" fill="#8A48E6"/>
<path d="M16.0777 64.2968C17.1591 61.9007 17.2481 59.6027 16.2766 59.1643C15.305 58.7258 13.6408 60.3128 12.5594 62.709C11.478 65.1051 11.3889 67.4031 12.3605 67.8415C13.332 68.28 14.9963 66.693 16.0777 64.2968Z" fill="#8A48E6"/>
<path d="M26.3858 42.8226C27.2007 40.3251 27.0405 38.0327 26.0279 37.7023C25.0152 37.3718 23.5337 39.1285 22.7188 41.626C21.9038 44.1234 22.0641 46.4158 23.0767 46.7462C24.0893 47.0767 25.5708 45.32 26.3858 42.8226Z" fill="#8A48E6"/>
<path d="M27.1857 24.704C28.2077 24.4011 28.4305 22.1123 27.6834 19.5918C26.9364 17.0713 25.5023 15.2736 24.4803 15.5765C23.4583 15.8794 23.2355 18.1683 23.9826 20.6887C24.7297 23.2092 26.1638 25.0069 27.1857 24.704Z" fill="#8A48E6"/>
<path d="M19.0727 9.06611C19.1224 8.00135 17.0338 7.03893 14.4078 6.91646C11.7818 6.794 9.6127 7.55788 9.56305 8.62263C9.5134 9.68739 11.602 10.6498 14.228 10.7723C16.854 10.8947 19.0231 10.1309 19.0727 9.06611Z" fill="#8A48E6"/>
<path d="M103.33 102.197C104.315 101.789 104.296 99.4895 103.289 97.0612C102.282 94.633 100.667 92.9956 99.6826 93.404C98.698 93.8125 98.7165 96.112 99.7238 98.5403C100.731 100.969 102.346 102.606 103.33 102.197Z" fill="#8A48E6"/>
<path d="M93.5238 84.5329C94.1788 83.6921 93.0287 81.7007 90.9549 80.0851C88.881 78.4695 86.6688 77.8415 86.0137 78.6823C85.3587 79.5232 86.5088 81.5145 88.5827 83.1301C90.6565 84.7457 92.8687 85.3738 93.5238 84.5329Z" fill="#8A48E6"/>
<path d="M72.4993 73.6394C72.6176 72.58 70.5955 71.4848 67.9829 71.1932C65.3702 70.9015 63.1564 71.5238 63.0381 72.5831C62.9198 73.6425 64.9419 74.7377 67.5546 75.0293C70.1672 75.321 72.3811 74.6987 72.4993 73.6394Z" fill="#8A48E6"/>
<path d="M50.4471 78.891C52.8052 77.7291 54.335 76.012 53.8638 75.0559C53.3927 74.0998 51.0991 74.2666 48.741 75.4286C46.3828 76.5905 44.8531 78.3076 45.3242 79.2637C45.7954 80.2198 48.089 80.053 50.4471 78.891Z" fill="#8A48E6"/>
<path d="M99.9243 135.167C101.383 132.98 101.847 130.728 100.961 130.136C100.074 129.545 98.1723 130.838 96.7133 133.025C95.2543 135.212 94.7903 137.464 95.677 138.056C96.5637 138.647 98.4653 137.354 99.9243 135.167Z" fill="#8A48E6"/>
<path d="M85.1028 149.02C87.4516 147.839 88.9675 146.11 88.4887 145.157C88.01 144.205 85.7178 144.39 83.369 145.571C81.0203 146.752 79.5043 148.481 79.9831 149.433C80.4619 150.386 82.754 150.2 85.1028 149.02Z" fill="#8A48E6"/>
<path d="M69.9814 152.05C70.1979 151.006 68.2867 149.727 65.7127 149.193C63.1386 148.659 60.8764 149.072 60.6599 150.116C60.4433 151.16 62.3545 152.439 64.9286 152.973C67.5026 153.507 69.7649 153.094 69.9814 152.05Z" fill="#8A48E6"/>
<path d="M47.4226 148.04C47.753 147.027 45.9963 145.546 43.4989 144.731C41.0015 143.916 38.709 144.076 38.3786 145.089C38.0481 146.101 39.8049 147.583 42.3023 148.398C44.7997 149.213 47.0921 149.052 47.4226 148.04Z" fill="#8A48E6"/>
<path opacity="0.17" d="M53.69 136.22C53.2217 142.515 53.697 148.845 55.1 155C50.3889 154.053 45.8231 152.489 41.52 150.35C41.52 147.11 41.71 144.06 42.02 140.87C42.4106 136.847 43.0721 132.854 44 128.92C44.56 126.54 45.24 124.1 45.85 122.04C46.15 121.04 46.45 120.14 46.76 119.3C49.5061 122.026 52.5716 124.41 55.89 126.4C55.68 126.94 55.47 127.4 55.31 127.91C54.3973 130.594 53.8524 133.39 53.69 136.22Z" fill="#1C0049"/>
<path opacity="0.17" d="M31.2 87.0502C31.08 87.1702 30.96 87.3002 30.83 87.4202L30.14 88.0602C29.24 88.8402 28.3 89.5602 27.55 90.3102C25.227 92.6574 23.0622 95.1563 21.07 97.7902C21.01 97.8602 20.95 97.9502 20.9 98.0202C17.1801 102.794 13.9222 107.91 11.17 113.3C11.1543 113.349 11.1342 113.395 11.11 113.44C10.37 114.93 9.69004 116.44 9.11004 117.97C6.1876 112.921 4.21502 107.38 3.29004 101.62C4.81004 99.4702 6.36004 97.4202 8.03004 95.3402C10.9081 91.7212 13.9897 88.269 17.26 85.0002C19.26 83.0002 21.4 81.0002 23.26 79.3802C25.66 77.2302 28.26 75.3802 30.59 73.6802C30.3532 78.261 30.4468 82.8528 30.87 87.4202L31.2 87.0502Z" fill="#1C0049"/>
</svg>
