<svg width="454" height="498" viewBox="0 0 454 498" fill="none" xmlns="http://www.w3.org/2000/svg">
<path d="M104.486 452.677C73.5105 457.678 55.0634 501.315 45.7765 527.221L5.04823 519.781L1.37268 486.041L49.2162 408.147L161.716 393.715L284.322 371.837L352.756 314.374L369.471 222.868L342.669 181.078L348.563 148.812C354.43 149.611 459.386 185.453 398.909 334.009C338.431 482.566 144.847 446.162 104.486 452.677Z" fill="#AB85E5"/>
<path d="M166.667 368.109C25.3082 350.815 -25.3673 457.38 -33.0352 512.825L12.1889 521.086C41.8184 397.777 130.993 413.792 149.533 412.533C168.074 411.274 264.831 417.196 305.327 385.512C426.192 292.369 384.407 188.975 343.008 179.226L337.79 207.789C367.671 247.682 343.365 389.727 166.667 368.109Z" fill="#8A48E6"/>
<ellipse cx="36.5022" cy="501.739" rx="13.8894" ry="8.33365" transform="rotate(-70.2309 36.5022 501.739)" fill="#8A48E6"/>
<ellipse cx="74.3254" cy="447.621" rx="13.8894" ry="8.33365" transform="rotate(-38.7316 74.3254 447.621)" fill="#8A48E6"/>
<ellipse cx="142.206" cy="433.304" rx="13.8894" ry="8.33365" transform="rotate(0.847034 142.206 433.304)" fill="#8A48E6"/>
<ellipse cx="215.093" cy="431.117" rx="13.8894" ry="8.33365" transform="rotate(-2.63854 215.093 431.117)" fill="#8A48E6"/>
<ellipse cx="286.042" cy="416.747" rx="13.8894" ry="8.33365" transform="rotate(-18.9558 286.042 416.747)" fill="#8A48E6"/>
<ellipse cx="347.754" cy="376.505" rx="13.8894" ry="8.33365" transform="rotate(-40.6323 347.754 376.505)" fill="#8A48E6"/>
<ellipse cx="387.019" cy="317.72" rx="13.8894" ry="8.33365" transform="rotate(-67.0075 387.019 317.72)" fill="#8A48E6"/>
<ellipse cx="401.019" cy="251.023" rx="13.8894" ry="8.33365" transform="rotate(-91.9059 401.019 251.023)" fill="#8A48E6"/>
<ellipse cx="377.937" cy="185.352" rx="13.8894" ry="8.33365" transform="rotate(-126.557 377.937 185.352)" fill="#8A48E6"/>
<path d="M262.707 77.3293C224.481 159.428 313.001 174 338 208L350.643 149.501C348.968 149.195 341.179 146.847 323.427 139.903C286.877 124.55 286.284 105.352 293.976 93.1639C301.669 80.9754 315.726 72.8418 331.016 84.8899C347.035 97.5126 355.823 80.7445 350.369 70.2039C344.916 59.6633 295.145 16.4436 262.707 77.3293Z" fill="#8A48E6"/>
<path fill-rule="evenodd" clip-rule="evenodd" d="M340.845 89.3697C327.203 63.7279 290.484 63.7641 280.852 78.6196C250.819 123.343 284.768 162.134 345 179.5L345.165 179.483L350.641 149.502C348.966 149.196 341.178 146.848 323.425 139.903C286.876 124.55 286.283 105.353 293.975 93.1642C301.667 80.9757 315.724 72.842 331.014 84.8901C334.703 87.7969 338.009 89.1451 340.845 89.3697Z" fill="#AB85E5"/>
<ellipse cx="5.96001" cy="10.7836" rx="5.96001" ry="10.7836" transform="matrix(0.376506 -0.926414 0.91718 0.398473 317.751 157.891)" fill="#8A48E6"/>
<ellipse cx="5.03105" cy="9.55582" rx="5.03105" ry="9.55582" transform="matrix(0.791203 -0.611554 0.565851 0.824507 277.823 122.129)" fill="#8A48E6"/>
<ellipse cx="3.95829" cy="7.79564" rx="3.95829" ry="7.79564" transform="matrix(0.781393 0.624039 -0.587653 0.809113 290.042 77.8163)" fill="#8A48E6"/>
</svg>
