<svg width="637" height="618" viewBox="0 0 637 618" fill="none" xmlns="http://www.w3.org/2000/svg">
<g clip-path="url(#clip0_186_1151)">
<path d="M357.805 117.851C467.342 103.401 540.159 54.1191 562.876 31.2844C570.385 23.5256 574.09 11.4056 575.636 -0.275024L548.864 -0.275035L448.864 -0.275024L407.446 -0.275024C385.231 22.7495 347.979 47.5571 288.649 63.1534C179.597 91.8204 189.182 179.416 207.605 219.63C285.681 347.8 377.358 248.962 415.031 337.349C434.385 400.147 357.609 400.269 352.383 355.019C355.832 330.942 332.775 327.19 324.864 345.725C305.481 400.115 361.387 433.12 397.364 424.225C497.864 396.225 485.607 249.747 378.643 244.885C284.629 240.613 220.883 135.914 357.805 117.851Z" fill="#AB85E5"/>
<path fill-rule="evenodd" clip-rule="evenodd" d="M328.212 293.515C279.656 267.301 263.447 228.281 254.436 206.589C252.914 202.925 251.597 199.755 250.365 197.225C221.365 115.725 307.865 89.225 419.865 56.225C462.803 43.5735 486.022 21.9961 497.533 -0.275024L476.864 -0.275022L448.364 -0.275024H407.927C385.769 22.897 348.409 47.4441 288.65 63.1533C179.598 91.8204 189.182 179.416 207.606 219.63C247.251 284.713 290.404 291.263 328.212 293.515Z" fill="#8A48E6"/>
<ellipse cx="521.624" cy="26.6437" rx="20.4176" ry="12.2506" transform="rotate(-43.3022 521.624 26.6437)" fill="#8A48E6"/>
<ellipse cx="448.85" cy="70.4426" rx="16.1163" ry="9.6698" transform="rotate(-20.5792 448.85 70.4426)" fill="#8A48E6"/>
<ellipse cx="365.82" cy="93.8514" rx="16.1163" ry="9.6698" transform="rotate(-9.21711 365.82 93.8514)" fill="#8A48E6"/>
<ellipse cx="269.327" cy="196.65" rx="12.9856" ry="7.79134" transform="rotate(-111.212 269.327 196.65)" fill="#8A48E6"/>
<ellipse cx="318.561" cy="252.947" rx="16.4688" ry="9.88126" transform="rotate(-147.236 318.561 252.947)" fill="#8A48E6"/>
<ellipse cx="399.463" cy="280.881" rx="14.6693" ry="8.80156" transform="rotate(-147.236 399.463 280.881)" fill="#8A48E6"/>
<ellipse cx="443.308" cy="338.48" rx="14.6693" ry="8.80156" transform="rotate(-89.4399 443.308 338.48)" fill="#8A48E6"/>
<ellipse cx="402.029" cy="401.245" rx="13.911" ry="8.34657" transform="rotate(-18.0514 402.029 401.245)" fill="#8A48E6"/>
<ellipse cx="345.24" cy="388.828" rx="11.2505" ry="6.75033" transform="rotate(56.1185 345.24 388.828)" fill="#8A48E6"/>
<ellipse cx="284.432" cy="126.73" rx="12.9856" ry="7.79134" transform="rotate(-36.6739 284.432 126.73)" fill="#8A48E6"/>
</g>
<path d="M154.705 595.564C148.203 596.435 142.87 595.334 138.704 592.249C134.537 589.165 132.005 584.268 131.105 577.548L127.709 552.194L47.4158 562.949C40.6958 563.849 35.1452 563.16 30.754 560.883C26.3628 558.606 23.7659 554.434 22.9521 548.358C22.4874 544.889 22.9021 540.979 24.1933 536.609C25.476 532.25 28.0603 526.385 31.9276 519.027L103.724 378.027C106.148 373.071 109.043 369.152 112.41 366.27C115.769 363.398 119.84 361.632 124.608 360.994C130.238 360.24 135.122 361.301 139.257 364.157C143.395 367.023 145.942 372.029 146.9 379.185L164.711 512.158L180.639 510.024C186.923 509.183 191.837 510.018 195.371 512.521C198.904 515.024 201.054 519.094 201.809 524.734C202.564 530.374 201.561 534.857 198.812 538.211C196.061 541.556 191.54 543.655 185.256 544.496L169.328 546.63L172.724 571.983C173.624 578.703 172.47 584.094 169.262 588.166C166.054 592.238 161.199 594.705 154.697 595.576L154.705 595.564ZM123.103 517.731L109.516 416.297L118.942 415.034L57.2839 537.796L55.8036 526.745L123.103 517.731Z" fill="#120C38"/>
<path d="M304.563 540.857C277.462 537.248 258.128 524.252 246.553 501.858C234.977 479.464 231.709 449.309 236.761 411.374C240.166 385.8 246.222 364.715 254.95 348.111C263.667 331.517 274.847 319.608 288.501 312.377C302.144 305.155 317.962 302.732 335.953 305.127C363.262 308.764 382.691 321.5 394.23 343.334C405.769 365.168 408.998 395.157 403.919 433.3C400.543 458.657 394.475 479.75 385.729 496.563C376.982 513.385 365.817 525.568 352.239 533.132C338.661 540.706 322.763 543.27 304.554 540.845L304.563 540.857ZM309.109 506.718C323.848 508.681 335.652 503.302 344.507 490.589C353.364 477.867 359.735 456.995 363.604 427.942C367.473 398.888 366.749 377.354 361.458 363.293C356.157 349.24 346.136 341.237 331.406 339.276C316.676 337.315 305.176 342.462 296.274 354.613C287.371 366.774 280.995 387.383 277.127 416.426C273.259 445.47 273.995 467.298 279.323 481.909C284.661 496.522 294.587 504.784 309.109 506.718Z" fill="#120C38"/>
<path d="M566.089 613.768C559.542 613.36 554.524 611.243 551.036 607.409C547.547 603.574 546.014 598.279 546.436 591.512L548.028 565.981L467.165 560.94C460.398 560.518 455.086 558.764 451.221 555.678C447.356 552.591 445.618 547.994 446 541.876C446.217 538.383 447.383 534.628 449.499 530.592C451.603 526.565 455.277 521.314 460.5 514.846L558.318 390.472C561.658 386.081 565.259 382.799 569.122 380.625C572.974 378.46 577.311 377.518 582.111 377.818C587.78 378.171 592.366 380.16 595.868 383.765C599.37 387.38 600.897 392.785 600.447 399.991L592.1 533.891L608.138 534.891C614.466 535.286 619.125 537.059 622.105 540.201C625.085 543.342 626.404 547.753 626.05 553.432C625.696 559.111 623.84 563.313 620.492 566.07C617.145 568.817 612.302 569.998 605.974 569.604L589.936 568.604L588.344 594.134C587.922 600.901 585.743 605.966 581.805 609.337C577.868 612.709 572.626 614.185 566.079 613.777L566.089 613.768ZM550.201 531.279L556.569 429.138L566.06 429.729L481.739 538.183L482.432 527.055L550.201 531.279Z" fill="#120C38"/>
<path d="M352.02 355.294C355.469 331.217 332.412 327.465 324.501 346C319.496 360.043 319.511 372.661 322.905 383.5L353.501 370C352.18 369.363 350.036 365.529 352.02 355.294Z" fill="#AB85E5"/>
<defs>
<clipPath id="clip0_186_1151">
<rect width="406" height="442" fill="white" transform="translate(170)"/>
</clipPath>
</defs>
</svg>
