<svg width="373" height="625" viewBox="0 0 373 625" fill="none" xmlns="http://www.w3.org/2000/svg">
<path d="M200.665 260.555C204.665 176.155 316.998 123.388 372.665 107.555V0.0551758C337.665 -1.27814 244.265 21.0552 150.665 121.055C33.665 246.055 121.665 382.555 161.665 453.055C201.665 523.555 122.165 604.555 67.665 552.055C13.165 499.555 62.665 463.555 75.665 466.055C122.665 473.055 106.165 503.555 92.165 503.555C78.165 503.555 73.665 519.055 87.665 527.055C101.665 535.055 156.665 524.555 138.665 468.555C120.665 412.555 35.1646 403.055 3.66462 503.555C-27.8354 604.055 152.165 686.555 221.165 561.555C290.165 436.555 195.665 366.055 200.665 260.555Z" fill="#8A48E6"/>
<path fill-rule="evenodd" clip-rule="evenodd" d="M372.665 49.5552C303.332 70.5552 173.521 136.04 157.665 225.555C140.772 320.925 163.75 370.076 188.361 422.717C193.856 434.471 199.433 446.399 204.665 459.055C231.5 530.721 123 640.221 50 561.721C27.9998 538.721 15.4 488.221 53 464.221C92.1665 439.221 118.305 475.555 114.665 488.555C110.086 504.91 101.489 514.622 79.1763 513.891C78.8473 518.408 81.4093 523.48 87.665 527.055C101.665 535.055 156.665 524.555 138.665 468.555C120.665 412.555 35.1646 403.055 3.66462 503.555C-27.8354 604.055 152.165 686.555 221.165 561.555C263.966 484.018 243.856 427.45 223.608 370.492C211.213 335.626 198.767 300.614 200.665 260.555C204.665 176.155 316.998 123.388 372.665 107.555L372.665 49.5552Z" fill="#AB85E5"/>
<ellipse cx="17.5857" cy="10.5514" rx="17.5857" ry="10.5514" transform="matrix(0.888615 -0.458653 -0.458653 -0.888615 309.758 115.917)" fill="#8A48E6"/>
<ellipse cx="17.5857" cy="10.5514" rx="17.5857" ry="10.5514" transform="matrix(0.727371 -0.686244 -0.686244 -0.727371 235.146 165.555)" fill="#8A48E6"/>
<ellipse cx="17.5857" cy="10.5514" rx="17.5857" ry="10.5514" transform="matrix(0.191433 -0.981506 -0.981506 -0.191433 190.379 242.555)" fill="#8A48E6"/>
<ellipse cx="17.5857" cy="10.5514" rx="17.5857" ry="10.5514" transform="matrix(-0.240343 -0.970688 -0.970688 0.240343 196.602 341.483)" fill="#8A48E6"/>
<ellipse cx="17.5857" cy="10.5514" rx="17.5857" ry="10.5514" transform="matrix(-0.379822 -0.92506 -0.92506 0.379822 229.545 430.54)" fill="#8A48E6"/>
<ellipse cx="14.1485" cy="8.48913" rx="14.1485" ry="8.48913" transform="matrix(0.117151 -0.993114 -0.993114 -0.117151 230.527 519.555)" fill="#8A48E6"/>
<ellipse cx="14.1485" cy="8.48913" rx="14.1485" ry="8.48913" transform="matrix(0.698791 -0.715326 -0.715326 -0.698791 176.809 593.555)" fill="#8A48E6"/>
<ellipse cx="14.1485" cy="8.48913" rx="14.1485" ry="8.48913" transform="matrix(0.999089 0.0426794 0.0426794 -0.999089 89.125 610.38)" fill="#8A48E6"/>
<ellipse cx="12.6935" cy="7.6161" rx="12.6935" ry="7.6161" transform="matrix(0.612332 0.790601 0.790601 -0.612332 18.6641 556.484)" fill="#8A48E6"/>
<ellipse cx="12.6935" cy="7.6161" rx="12.6935" ry="7.6161" transform="matrix(0.999982 0.00602678 0.00602678 -0.999982 69.6641 449.402)" fill="#8A48E6"/>
<ellipse cx="9.34815" cy="5.60889" rx="9.34815" ry="5.60889" transform="matrix(0.115803 0.993272 0.993272 -0.115803 122.664 475.985)" fill="#8A48E6"/>
<ellipse cx="9.50616" cy="5.7037" rx="9.50616" ry="5.7037" transform="matrix(-0.341802 0.939772 0.939772 0.341802 22.0508 474.14)" fill="#8A48E6"/>
</svg>
