<svg width="380" height="515" viewBox="0 0 380 515" fill="none" xmlns="http://www.w3.org/2000/svg">
<g clip-path="url(#clip0_124_596)">
<path d="M380 436.632C380 436.632 365.596 515 254.282 515C142.969 515 107.48 451.817 94.993 404.914C82.5058 358.011 66.2132 262.294 44.2549 220.172C31.8465 196.082 17.0189 173.311 0 152.208L0 0C0 0 56.6293 67.9637 89.2426 129.348C121.856 190.731 168.873 311.221 184.236 370.553C199.598 429.884 380 436.632 380 436.632Z" fill="#8A48E6"/>
<path d="M44.1421 220.172C66.2132 262.351 82.5339 357.955 94.8802 404.914C107.226 451.873 142.8 515 254.17 515C365.54 515 379.887 436.632 379.887 436.632C379.887 436.632 360.156 435.901 333.434 432.78C332.363 434.017 331.291 435.283 330.22 436.632C312.389 459.828 286.144 475.115 257.129 479.205C234.203 481.932 210.956 479.609 189.028 472.4C180.337 469.758 172.083 465.854 164.532 460.815C156.956 455.299 150.715 448.16 146.267 439.922C140.349 429.544 135.123 418.789 130.622 407.726C119.187 379.84 109.38 351.317 101.251 322.3C92.8131 293.244 85.4561 263.897 79.1796 234.26C61.1676 148.862 0 91.415 0 91.415V152.208C16.9797 173.316 31.7695 196.087 44.1421 220.172Z" fill="#AB85E5"/>
<path d="M18.6234 155.217C21.549 153.532 20.9423 147.02 17.2683 140.672C13.5944 134.325 8.24435 130.544 5.31875 132.229C2.39315 133.914 2.99983 140.426 6.67381 146.774C10.3478 153.122 15.6978 156.902 18.6234 155.217Z" fill="#8A48E6"/>
<path d="M48.9838 207.712C51.9094 206.027 51.3027 199.515 47.6287 193.167C43.9547 186.819 38.6047 183.039 35.6791 184.724C32.7535 186.409 33.3602 192.921 37.0342 199.269C40.7081 205.617 46.0582 209.397 48.9838 207.712Z" fill="#8A48E6"/>
<path d="M66.2698 283.412C68.1302 286.702 70.4698 288.614 72.5557 288.164C75.8536 287.433 77.263 281.05 75.6845 273.88C74.106 266.709 70.047 261.507 66.8335 262.21C64.2685 262.772 62.8872 266.737 63.1128 271.827L66.2698 283.412Z" fill="#8A48E6"/>
<path d="M93.0925 368.548C96.3915 367.823 97.7838 361.432 96.2021 354.274C94.6205 347.116 90.664 341.901 87.365 342.626C84.066 343.351 82.6738 349.742 84.2554 356.901C85.837 364.059 89.7935 369.274 93.0925 368.548Z" fill="#8A48E6"/>
<path d="M122.762 448.131C125.688 446.446 125.081 439.934 121.407 433.586C117.733 427.238 112.383 423.457 109.457 425.142C106.532 426.827 107.139 433.339 110.812 439.687C114.486 446.035 119.836 449.816 122.762 448.131Z" fill="#8A48E6"/>
<path d="M209.806 503.974C211.495 501.055 207.706 495.718 201.342 492.053C194.979 488.388 188.451 487.783 186.762 490.702C185.072 493.62 188.862 498.957 195.225 502.622C201.589 506.287 208.117 506.892 209.806 503.974Z" fill="#8A48E6"/>
<path d="M278.862 506.311C286.21 506.311 292.167 503.579 292.167 500.209C292.167 496.839 286.21 494.107 278.862 494.107C271.514 494.107 265.558 496.839 265.558 500.209C265.558 503.579 271.514 506.311 278.862 506.311Z" fill="#8A48E6"/>
<path d="M355.997 468.413C360.561 462.668 362.115 456.315 359.467 454.221C356.82 452.128 350.974 455.088 346.41 460.833C341.845 466.577 340.292 472.931 342.939 475.024C345.587 477.117 351.433 474.157 355.997 468.413Z" fill="#8A48E6"/>
</g>
<defs>
<clipPath id="clip0_124_596">
<rect width="380" height="515" fill="white"/>
</clipPath>
</defs>
</svg>
