<svg width="155" height="128" viewBox="0 0 155 128" fill="none" xmlns="http://www.w3.org/2000/svg">
<g clip-path="url(#clip0_124_609)">
<path d="M0 47.0018C0 47.0018 21.5677 0.218262 86.7493 0.218262C151.931 0.218262 154.324 58.9502 154.859 72.3009C155.394 85.6516 158.153 127.218 107.838 127.218C91.5359 127.218 83.8774 121.945 79.6821 111.932C75.4868 101.919 82.4977 103.35 85.3133 105.257C88.129 107.164 123.155 115.747 123.155 82.8188C123.155 49.8907 74.7548 47.0018 43.614 66.5791C12.4732 86.1564 0 47.0018 0 47.0018Z" fill="#8A48E6"/>
<path d="M91.8171 25.9379C42.9379 14.9713 10.1641 63.6621 10.1641 63.6621C17.175 71.2069 28.1559 76.4799 43.9515 66.4669C75.0923 46.8335 123.521 49.6382 123.521 82.7065C123.521 115.775 88.5228 107.052 85.6509 105.145C83.9334 103.995 80.7235 103.041 79.2876 104.556C79.4847 104.752 90.1559 115.13 110.569 112.774C130.982 110.418 134.53 92.2427 136.445 81.2761C138.359 70.3094 140.781 36.9046 91.8171 25.9379Z" fill="#AB85E5"/>
<path d="M42.7816 59.0707C48.5693 54.5744 51.5789 48.7806 49.5037 46.13C47.4285 43.4794 41.0544 44.9756 35.2667 49.4719C29.479 53.9683 26.4694 59.762 28.5445 62.4127C30.6197 65.0633 36.9938 63.567 42.7816 59.0707Z" fill="#8A48E6"/>
<path d="M114.675 52.0489C115.902 48.9175 111.354 44.2241 104.516 41.5658C97.679 38.9076 91.1416 39.2911 89.9148 42.4225C88.6879 45.5538 93.2362 50.2472 100.074 52.9055C106.911 55.5638 113.448 55.1802 114.675 52.0489Z" fill="#8A48E6"/>
</g>
<defs>
<clipPath id="clip0_124_609">
<rect width="155" height="127" fill="white" transform="translate(0 0.218262)"/>
</clipPath>
</defs>
</svg>
